<svg width="24" height="24" viewBox="0 0 24 24" fill="none" xmlns="http://www.w3.org/2000/svg">
<path d="M11.8242 2.8164C11.6874 2.87499 11.621 2.98437 11.3984 3.49218C10.8163 4.82812 10.664 5.62499 10.9023 6.11328C11.0078 6.32812 11.246 6.57812 11.4335 6.66406L11.5703 6.73046V7.54687V8.36718H9.98822H8.40619V7.95703V7.55078L8.5351 7.48437C8.86322 7.31249 9.06635 7.0664 9.16791 6.71093C9.33588 6.1289 8.98432 5.1914 8.35932 4.5664C8.19526 4.40234 8.15619 4.38281 7.99604 4.38281C7.84369 4.38281 7.80072 4.40234 7.66791 4.53515C7.32807 4.87499 6.98432 5.4414 6.85932 5.86718C6.76557 6.18749 6.77729 6.62499 6.88276 6.87499C6.98041 7.09765 7.32807 7.45312 7.49213 7.49218C7.58588 7.51562 7.58588 7.52343 7.58588 7.9414V8.36328L5.64447 8.37499C3.70697 8.38671 3.69916 8.38671 3.49994 8.47656C3.24994 8.58984 3.00776 8.83593 2.89057 9.08984C2.80463 9.28124 2.80072 9.32031 2.78901 10.6914C2.78119 12.0195 2.7851 12.1055 2.85541 12.2187C2.91791 12.3242 3.05854 12.3945 3.88666 12.7383C5.32416 13.332 5.48432 13.3398 6.66791 12.8359C7.25776 12.5859 7.30854 12.5742 7.60541 12.5703C7.9101 12.5664 7.93744 12.5742 8.58197 12.8477C9.6601 13.3047 9.90229 13.3086 10.9179 12.8945C11.7656 12.5508 11.7617 12.5508 11.9999 12.5508C12.2382 12.5508 12.2343 12.5508 13.082 12.8945C14.0976 13.3086 14.3398 13.3047 15.4179 12.8477C16.0624 12.5742 16.0898 12.5664 16.3945 12.5703C16.6913 12.5742 16.7421 12.5859 17.332 12.8359C18.5156 13.3398 18.6679 13.332 20.1093 12.7383C20.9413 12.3945 21.082 12.3203 21.1445 12.2187C21.2148 12.1055 21.2187 12.0156 21.2109 10.6914C21.1992 9.32031 21.1953 9.28124 21.1093 9.08984C20.9921 8.83593 20.7499 8.58984 20.4999 8.47656C20.3007 8.38671 20.2929 8.38671 18.3593 8.37499L16.414 8.36328V7.96093V7.55468L16.582 7.45703C16.8124 7.32031 17.0195 7.08984 17.121 6.86718C17.2226 6.6289 17.2343 6.18359 17.1406 5.86718C17.0156 5.4414 16.6718 4.87499 16.332 4.53515C16.1992 4.40234 16.1562 4.38281 16.0038 4.38281C15.8437 4.38281 15.8046 4.40234 15.6406 4.5664C15.0156 5.1914 14.664 6.1289 14.832 6.71093C14.9335 7.0664 15.1367 7.31249 15.4687 7.48437L15.5937 7.55078V7.95703V8.36718H14.0117H12.4296V7.54687V6.73046L12.5663 6.66406C12.7538 6.57421 12.9921 6.32812 13.1015 6.10937C13.2773 5.74609 13.2304 5.1914 12.9609 4.39453C12.7734 3.84765 12.4023 3.01171 12.2968 2.90624C12.1992 2.80468 11.9531 2.76171 11.8242 2.8164Z" fill="black"/>
<path d="M6.82812 13.582C6.02344 13.9141 5.875 13.9531 5.38672 13.9531C4.96094 13.9531 4.66797 13.8789 4.05859 13.625C3.82422 13.5234 3.61719 13.4453 3.59766 13.4453C3.57812 13.4453 3.5625 14.2266 3.5625 15.3203V17.1953H12H20.4375V15.3203C20.4375 14.2266 20.4219 13.4453 20.4023 13.4453C20.3828 13.4453 20.1758 13.5234 19.9414 13.625C19.3242 13.8828 19.0391 13.9531 18.6016 13.9531C18.1328 13.9531 17.9336 13.9023 17.1055 13.5625C16.7383 13.4102 16.4141 13.2891 16.3867 13.2891C16.3555 13.2891 16.0391 13.4102 15.6797 13.5586C14.8867 13.8867 14.6445 13.9531 14.2148 13.9531C13.7422 13.9531 13.5586 13.9062 12.7578 13.5781C12.3672 13.418 12.0273 13.2891 12 13.2891C11.9727 13.2891 11.6328 13.418 11.2422 13.5781C10.4414 13.9062 10.2578 13.9531 9.78516 13.9531C9.35547 13.9531 9.11328 13.8867 8.32031 13.5586C7.96094 13.4102 7.63672 13.2891 7.59766 13.293C7.55859 13.2969 7.21484 13.4258 6.82812 13.582Z" fill="black"/>
<path d="M2.75781 18.0586C2.48047 18.1641 2.26172 18.3672 2.12109 18.6485C2.01562 18.8555 2 18.9297 2 19.2031C2 19.582 2.0625 19.8399 2.23438 20.1563C2.48438 20.6289 2.97266 21.0039 3.51953 21.1445C3.80078 21.2149 4.07812 21.2188 12 21.2188C19.9219 21.2188 20.1992 21.2149 20.4805 21.1445C21.0273 21.0039 21.5156 20.6289 21.7656 20.1563C21.9375 19.8399 22 19.582 22 19.2031C22 18.9297 21.9844 18.8555 21.8789 18.6485C21.7383 18.3633 21.5195 18.1641 21.2305 18.0547C21.0234 17.9766 20.9375 17.9766 11.9883 17.9805C3.125 17.9805 2.95312 17.9805 2.75781 18.0586Z" fill="black"/>
</svg>
