<svg width="24" height="24" viewBox="0 0 24 24" fill="none" xmlns="http://www.w3.org/2000/svg">
<path d="M12 0C18.6274 0 24 5.37258 24 12C24 18.6274 18.6274 24 12 24C5.37258 24 0 18.6274 0 12C0 5.37258 5.37258 0 12 0ZM11.9902 16.2344C4.97569 16.2344 4.83817 16.2351 4.68359 16.2969C4.46403 16.3804 4.29004 16.541 4.17871 16.7637C4.09546 16.9271 4.08302 16.9861 4.08301 17.2021C4.08301 17.5021 4.13255 17.7066 4.26855 17.957C4.46644 18.3312 4.85327 18.6279 5.28613 18.7393C5.50879 18.7949 5.72852 18.7979 12 18.7979C18.2715 18.7979 18.4912 18.7949 18.7139 18.7393C19.1467 18.6279 19.5336 18.3312 19.7314 17.957C19.8675 17.7066 19.917 17.5021 19.917 17.2021C19.917 16.986 19.9037 16.9274 19.8203 16.7637C19.709 16.5379 19.5364 16.3796 19.3076 16.293C19.1437 16.2311 19.075 16.2313 11.9902 16.2344ZM15.4727 12.5205C15.447 12.5209 15.197 12.6171 14.9131 12.7344C14.2855 12.9941 14.0931 13.0459 13.7529 13.0459C13.3791 13.0459 13.2333 13.0087 12.5996 12.749C12.2905 12.6223 12.0216 12.5205 12 12.5205C11.9784 12.5205 11.7095 12.6223 11.4004 12.749C10.7664 13.0088 10.6203 13.0459 10.2461 13.0459C9.90626 13.0458 9.71424 12.994 9.08691 12.7344C8.80241 12.6169 8.54557 12.5203 8.51465 12.5234C8.48304 12.5268 8.21096 12.6294 7.90527 12.7529C7.26871 13.0156 7.15098 13.0459 6.76465 13.0459C6.42757 13.0459 6.19531 12.9871 5.71289 12.7861C5.52745 12.7058 5.36311 12.6445 5.34766 12.6445C5.33245 12.659 5.32031 13.2733 5.32031 14.1289V15.6133H18.6797V14.1289C18.6797 13.2733 18.6675 12.659 18.6523 12.6445C18.6369 12.6445 18.4726 12.7058 18.2871 12.7861C17.7987 12.9902 17.5727 13.0459 17.2266 13.0459C16.8555 13.0459 16.6974 13.0063 16.042 12.7373C15.7513 12.6167 15.4943 12.5205 15.4727 12.5205ZM12.2354 4.30078C12.158 4.22038 11.9624 4.1862 11.8604 4.22949C11.7524 4.27592 11.6995 4.36307 11.5234 4.76465C11.0627 5.82219 10.9422 6.4533 11.1309 6.83984C11.2144 7.00991 11.4033 7.20737 11.5518 7.27539L11.6602 7.32812V8.62402H9.15527V7.97754L9.25684 7.9248C9.5166 7.78874 9.67741 7.59391 9.75781 7.3125C9.89059 6.85178 9.61271 6.10993 9.11816 5.61523C8.98828 5.48535 8.95687 5.46973 8.83008 5.46973C8.7096 5.46974 8.67541 5.48572 8.57031 5.59082C8.30148 5.8598 8.02968 6.30763 7.93066 6.64453C7.85647 6.89804 7.86579 7.24444 7.94922 7.44238C8.02653 7.61865 8.30176 7.90072 8.43164 7.93164C8.50548 7.95012 8.50586 7.95679 8.50586 8.28711V8.62109L6.96875 8.62988C5.4349 8.63916 5.42822 8.63981 5.27051 8.71094C5.07273 8.8007 4.8808 8.99541 4.78809 9.19629C4.72017 9.34759 4.71728 9.37919 4.70801 10.4639C4.70183 11.5147 4.70518 11.5833 4.76074 11.6729C4.81022 11.7563 4.92155 11.8128 5.57715 12.085C6.71467 12.5548 6.84188 12.5608 7.77832 12.1621C8.24496 11.9643 8.28591 11.9543 8.52051 11.9512C8.76169 11.9481 8.78388 11.9545 9.29395 12.1709C10.1475 12.5327 10.3395 12.5358 11.1436 12.208C11.8144 11.936 11.8114 11.9365 12 11.9365C12.1886 11.9365 12.1856 11.936 12.8564 12.208C13.6605 12.5358 13.8525 12.5327 14.7061 12.1709C15.2161 11.9545 15.2383 11.9481 15.4795 11.9512C15.7141 11.9543 15.755 11.9643 16.2217 12.1621C17.1582 12.5608 17.2792 12.5549 18.4199 12.085C19.0786 11.8128 19.1898 11.7533 19.2393 11.6729C19.2948 11.5832 19.2982 11.5116 19.292 10.4639C19.2827 9.37919 19.2798 9.34759 19.2119 9.19629C19.1192 8.99541 18.9273 8.8007 18.7295 8.71094C18.5718 8.63981 18.5649 8.63916 17.0342 8.62988L15.4941 8.62109V7.98047L15.6279 7.90332C15.8102 7.79505 15.9743 7.61265 16.0547 7.43652C16.135 7.24784 16.1435 6.89494 16.0693 6.64453C15.9703 6.30763 15.6985 5.8598 15.4297 5.59082C15.3246 5.48572 15.2904 5.46974 15.1699 5.46973C15.0431 5.46973 15.0117 5.48535 14.8818 5.61523C14.3873 6.10993 14.1094 6.85178 14.2422 7.3125C14.3226 7.59387 14.4833 7.78874 14.7461 7.9248L14.8447 7.97754V8.62402H12.3398V7.32812L12.4482 7.27539C12.5966 7.2043 12.7854 7.01003 12.8721 6.83691C13.0112 6.54938 12.974 6.11012 12.7607 5.47949C12.6124 5.04683 12.3191 4.38497 12.2354 4.30078Z" fill="black"/>
</svg>
