<svg width="24" height="24" viewBox="0 0 24 24" fill="none" xmlns="http://www.w3.org/2000/svg">
<path fill-rule="evenodd" clip-rule="evenodd" d="M7.66226 18.9237C7.0335 18.7452 6.35607 18.6118 5.65024 18.5613C4.1881 18.455 3 17.2758 3 15.7669V6.22056C3 4.53126 4.47521 3.25121 6.13386 3.4315C8.3086 3.67129 10.1678 4.5547 11.2752 5.19652C11.5186 5.33715 11.7913 5.40206 12.0613 5.39124C12.2907 5.38222 12.5183 5.31732 12.7256 5.19652C13.8322 4.5547 15.6914 3.67129 17.8662 3.4315C19.5239 3.25121 21 4.53126 21 6.22056V15.7669C21 17.2758 19.8119 18.455 18.3498 18.5613C16.916 18.664 15.6004 19.1076 14.5696 19.5799C14.1301 19.7819 13.7425 19.9892 13.4198 20.1767C12.5391 20.6869 11.4609 20.6869 10.5802 20.1767C9.87259 19.7656 8.85442 19.2627 7.66226 18.9237ZM11.3077 6.69111C11.0562 6.62801 10.8114 6.52706 10.5802 6.39363C10.0403 6.07994 9.31866 5.71395 8.47581 5.40747C7.72672 5.13342 6.88161 4.90806 5.98332 4.80891C5.1238 4.71516 4.38462 5.37681 4.38462 6.22056V15.7669C4.38462 16.1653 4.55364 16.5277 4.83218 16.7855C5.07017 17.0072 5.38837 17.1532 5.74985 17.1803C8.0909 17.348 10.1047 18.2999 11.2744 18.9778C11.2856 18.985 11.2964 18.9903 11.3077 18.9958V6.69111ZM12.6923 18.9958C12.7036 18.9903 12.7144 18.985 12.7256 18.9778C13.4716 18.5451 14.5605 18.0006 15.8591 17.622C16.5969 17.4057 17.4019 17.2416 18.2511 17.1803C19.033 17.1226 19.6154 16.506 19.6154 15.7669V6.22056C19.6154 5.37681 18.8753 4.71516 18.0167 4.80891C16.1079 5.01804 14.4398 5.80229 13.4198 6.39544C13.1886 6.52886 12.9438 6.62801 12.6923 6.69111V18.9958Z" fill="black"/>
</svg>
