<svg width="24" height="24" viewBox="0 0 24 24" fill="none" xmlns="http://www.w3.org/2000/svg">
<path fill-rule="evenodd" clip-rule="evenodd" d="M15.6049 3C15.9872 3 16.2972 3.30996 16.2972 3.69231V6.66762C16.2972 7.04997 15.9872 7.35993 15.6049 7.35993C15.2226 7.35993 14.9126 7.04997 14.9126 6.66762V3.69231C14.9126 3.30996 15.2226 3 15.6049 3Z" fill="black"/>
<path fill-rule="evenodd" clip-rule="evenodd" d="M8.38225 3C8.7646 3 9.07456 3.30996 9.07456 3.69231V6.66762C9.07456 7.04997 8.7646 7.35993 8.38225 7.35993C7.99989 7.35993 7.68994 7.04997 7.68994 6.66762V3.69231C7.68994 3.30996 7.99989 3 8.38225 3Z" fill="black"/>
<path fill-rule="evenodd" clip-rule="evenodd" d="M7.86021 4.37283L16.1345 4.37201C17.4775 4.37201 18.655 4.74615 19.4993 5.55086C20.3489 6.36061 20.7713 7.52051 20.7674 8.90692C20.7674 8.90672 20.7674 8.90713 20.7674 8.90692V16.4575C20.7674 17.844 20.3431 19.005 19.4935 19.8161C18.6487 20.6225 17.4715 20.999 16.1275 20.999L7.86028 20.9998C6.51621 20.9998 5.33789 20.6152 4.49309 19.7964C3.64486 18.9742 3.22021 17.7992 3.22021 16.3956V8.90638C3.22021 7.51919 3.64699 6.35995 4.49795 5.55106C5.34353 4.74728 6.52033 4.37284 7.86021 4.37283C7.86024 4.37283 7.86019 4.37283 7.86021 4.37283ZM16.1346 5.75662L7.86028 5.75745C6.76968 5.75745 5.97252 6.05974 5.4519 6.55462C4.93663 7.04441 4.60483 7.80579 4.60483 8.90638V16.3956C4.60483 17.5192 4.93876 18.3001 5.45675 18.8022C5.97816 19.3075 6.77373 19.6152 7.86014 19.6152C7.86012 19.6152 7.86016 19.6152 7.86014 19.6152L16.1274 19.6144C17.2211 19.6144 18.0178 19.3106 18.5374 18.8145C19.0522 18.3232 19.3828 17.5595 19.3828 16.4575V8.90555V8.90356C19.386 7.80248 19.057 7.04199 18.544 6.55318C18.0258 6.05923 17.2294 5.75663 16.1346 5.75662Z" fill="black"/>
<path fill-rule="evenodd" clip-rule="evenodd" d="M11.3062 11.4312C11.3062 11.0489 11.6161 10.7389 11.9985 10.7389C12.3808 10.7389 12.6914 11.0489 12.6914 11.4312C12.6914 11.8135 12.3814 12.1235 11.9991 12.1235C11.6168 12.1235 11.3062 11.8135 11.3062 11.4312Z" fill="black"/>
<path fill-rule="evenodd" clip-rule="evenodd" d="M11.3062 14.8963C11.3062 14.514 11.6161 14.204 11.9985 14.204C12.3808 14.204 12.6914 14.514 12.6914 14.8963C12.6914 15.2787 12.3814 15.5887 11.9991 15.5887C11.6168 15.5887 11.3062 15.2787 11.3062 14.8963Z" fill="black"/>
<path fill-rule="evenodd" clip-rule="evenodd" d="M7.28857 11.4312C7.28857 11.0489 7.59852 10.7389 7.98088 10.7389C8.36323 10.7389 8.67382 11.0489 8.67382 11.4312C8.67382 11.8135 8.36386 12.1235 7.98151 12.1235C7.59915 12.1235 7.28857 11.8135 7.28857 11.4312Z" fill="black"/>
<path fill-rule="evenodd" clip-rule="evenodd" d="M7.28857 14.8963C7.28857 14.514 7.59852 14.204 7.98088 14.204C8.36323 14.204 8.67382 14.514 8.67382 14.8963C8.67382 15.2787 8.36386 15.5887 7.98151 15.5887C7.59915 15.5887 7.28857 15.2787 7.28857 14.8963Z" fill="black"/>
<path fill-rule="evenodd" clip-rule="evenodd" d="M15.314 11.4312C15.314 11.0489 15.6239 10.7389 16.0063 10.7389C16.3886 10.7389 16.6992 11.0489 16.6992 11.4312C16.6992 11.8135 16.3893 12.1235 16.0069 12.1235C15.6246 12.1235 15.314 11.8135 15.314 11.4312Z" fill="black"/>
<path fill-rule="evenodd" clip-rule="evenodd" d="M15.314 14.8963C15.314 14.514 15.6239 14.204 16.0063 14.204C16.3886 14.204 16.6992 14.514 16.6992 14.8963C16.6992 15.2787 16.3893 15.5887 16.0069 15.5887C15.6246 15.5887 15.314 15.2787 15.314 14.8963Z" fill="black"/>
</svg>
