<svg width="24" height="24" viewBox="0 0 24 24" fill="none" xmlns="http://www.w3.org/2000/svg">
<path fill-rule="evenodd" clip-rule="evenodd" d="M4.17766 11.1C4.07569 11.1 3.99304 11.1826 3.99304 11.2846V16.4908C3.99304 19.2415 5.64535 20.8846 8.41458 20.8846H15.4484C18.2176 20.8846 19.87 19.2692 19.87 16.5554V11.2846C19.87 11.1826 19.7873 11.1 19.6853 11.1H4.17766ZM18.7346 5.83846C18.0607 5.17385 17.11 4.79539 15.9838 4.69385V3.80769C15.9838 3.42923 15.67 3.11539 15.2915 3.11539C14.9038 3.11539 14.5992 3.42923 14.5992 3.80769V7.08462C14.5346 7.10308 14.4792 7.12154 14.4146 7.12154C14.0269 7.12154 13.7223 6.8077 13.7223 6.42923V4.84154C13.7223 4.73958 13.6396 4.65693 13.5376 4.65693H9.2638V3.80769C9.2638 3.42923 8.9592 3.11539 8.5715 3.11539C8.19304 3.11539 7.8792 3.42923 7.8792 3.80769V7.08462C7.82381 7.10308 7.7592 7.12154 7.69458 7.12154C7.31612 7.12154 7.00227 6.8077 7.00227 6.42923V5.07743C7.00227 4.95751 6.88932 4.86935 6.77444 4.9038C5.01254 5.43206 3.99304 6.86041 3.99304 8.97693V9.53077C3.99304 9.63273 4.07569 9.71539 4.17766 9.71539H19.6853C19.7873 9.71539 19.87 9.63273 19.87 9.53077V8.97693C19.87 7.67539 19.4823 6.58616 18.7346 5.83846Z" fill="black"/>
</svg>
