<svg width="24" height="24" viewBox="0 0 24 24" fill="none" xmlns="http://www.w3.org/2000/svg">
<path fill-rule="evenodd" clip-rule="evenodd" d="M3.9071 9.84374C3.9071 9.46139 4.21706 9.15143 4.59941 9.15143H19.4069C19.7892 9.15143 20.0992 9.46139 20.0992 9.84374C20.0992 10.2261 19.7892 10.5361 19.4069 10.5361H4.59941C4.21706 10.5361 3.9071 10.2261 3.9071 9.84374Z" fill="black"/>
<path fill-rule="evenodd" clip-rule="evenodd" d="M15.3572 3C15.7396 3 16.0495 3.30996 16.0495 3.69231V6.42622C16.0495 6.80857 15.7396 7.11853 15.3572 7.11853C14.9749 7.11853 14.6649 6.80857 14.6649 6.42622V3.69231C14.6649 3.30996 14.9749 3 15.3572 3Z" fill="black"/>
<path fill-rule="evenodd" clip-rule="evenodd" d="M8.64629 3C9.02863 3 9.33859 3.30996 9.33859 3.69231V6.42622C9.33859 6.80857 9.02863 7.11853 8.64629 7.11853C8.26393 7.11853 7.95398 6.80857 7.95398 6.42622V3.69231C7.95398 3.30996 8.26393 3 8.64629 3Z" fill="black"/>
<path fill-rule="evenodd" clip-rule="evenodd" d="M5.11193 5.49468C5.96025 4.68828 7.14095 4.3125 8.48572 4.3125H15.5199C16.8677 4.3125 18.0491 4.68799 18.8962 5.49529C19.7484 6.30764 20.1723 7.47138 20.1684 8.86275C20.1684 8.86255 20.1684 8.86296 20.1684 8.86275V16.4434C20.1684 17.8349 19.7426 18.9998 18.8903 19.8135C18.0428 20.6225 16.8615 21.0004 15.5127 21.0004H8.48572C7.1368 21.0004 5.9546 20.6143 5.10708 19.7929C4.25611 18.9681 3.82996 17.7892 3.82996 16.3805V8.86139C3.82996 7.46923 4.25825 6.30615 5.11193 5.49468ZM6.06588 6.49824C5.54789 6.99061 5.21457 7.75583 5.21457 8.86139V16.3805C5.21457 17.5092 5.55002 18.294 6.07073 18.7986C6.59488 19.3067 7.39441 19.6157 8.48572 19.6157H15.5127C16.6113 19.6157 17.4118 19.3106 17.9341 18.8119C18.4516 18.318 18.7838 17.5505 18.7838 16.4434V8.86139V8.85939C18.7871 7.75333 18.4565 6.98902 17.9409 6.49761C17.4199 6.00106 16.6195 5.69712 15.5199 5.69712H8.48572C7.39025 5.69712 6.58923 6.00076 6.06588 6.49824Z" fill="black"/>
<path fill-rule="evenodd" clip-rule="evenodd" d="M11.9988 12.0712C12.3813 12.0712 12.6911 12.3811 12.6911 12.7635V16.9174C12.6911 17.2998 12.3813 17.6097 11.9988 17.6097C11.6165 17.6097 11.3065 17.2998 11.3065 16.9174V12.7635C11.3065 12.3811 11.6165 12.0712 11.9988 12.0712Z" fill="black"/>
<path fill-rule="evenodd" clip-rule="evenodd" d="M9.22937 14.8404C9.22937 14.458 9.53933 14.1481 9.92164 14.1481H14.0756C14.4579 14.1481 14.7679 14.458 14.7679 14.8404C14.7679 15.2228 14.4579 15.5327 14.0756 15.5327H9.92164C9.53933 15.5327 9.22937 15.2228 9.22937 14.8404Z" fill="black"/>
</svg>
