<svg width="24" height="24" viewBox="0 0 24 24" fill="none" xmlns="http://www.w3.org/2000/svg">
<path fill-rule="evenodd" clip-rule="evenodd" d="M3.9071 9.84557C3.9071 9.46321 4.21706 9.15326 4.59941 9.15326H19.4069C19.7892 9.15326 20.0992 9.46321 20.0992 9.84557C20.0992 10.2279 19.7892 10.5379 19.4069 10.5379H4.59941C4.21706 10.5379 3.9071 10.2279 3.9071 9.84557Z" fill="black"/>
<path fill-rule="evenodd" clip-rule="evenodd" d="M15.3572 3C15.7396 3 16.0495 3.30996 16.0495 3.69231V6.42622C16.0495 6.80857 15.7396 7.11853 15.3572 7.11853C14.9748 7.11853 14.6649 6.80857 14.6649 6.42622V3.69231C14.6649 3.30996 14.9748 3 15.3572 3Z" fill="black"/>
<path fill-rule="evenodd" clip-rule="evenodd" d="M8.64531 3C9.02766 3 9.33762 3.30996 9.33762 3.69231V6.42622C9.33762 6.80857 9.02766 7.11853 8.64531 7.11853C8.26296 7.11853 7.953 6.80857 7.953 6.42622V3.69231C7.953 3.30996 8.26296 3 8.64531 3Z" fill="black"/>
<path fill-rule="evenodd" clip-rule="evenodd" d="M5.11193 5.49468C5.96026 4.68828 7.14096 4.3125 8.48572 4.3125H15.5199C16.8677 4.3125 18.0491 4.68799 18.8962 5.49529C19.7484 6.30764 20.1723 7.47138 20.1684 8.86275C20.1684 8.86255 20.1684 8.86296 20.1684 8.86275V16.4434C20.1684 17.8349 19.7426 18.9998 18.8903 19.8135C18.0428 20.6225 16.8615 21.0004 15.5127 21.0004H8.48572C7.1368 21.0004 5.9546 20.6143 5.10708 19.7929C4.25612 18.9681 3.82996 17.7892 3.82996 16.3805V8.86139C3.82996 7.46923 4.25825 6.30615 5.11193 5.49468ZM6.06589 6.49824C5.54789 6.99061 5.21457 7.75583 5.21457 8.86139V16.3805C5.21457 17.5092 5.55003 18.294 6.07073 18.7986C6.59489 19.3067 7.39442 19.6157 8.48572 19.6157H15.5127C16.6113 19.6157 17.4118 19.3106 17.9341 18.8119C18.4516 18.318 18.7838 17.5505 18.7838 16.4434V8.86139V8.85939C18.7871 7.75333 18.4565 6.98902 17.9409 6.49761C17.4199 6.00106 16.6195 5.69712 15.5199 5.69712H8.48572C7.39026 5.69712 6.58924 6.00076 6.06589 6.49824Z" fill="black"/>
<path fill-rule="evenodd" clip-rule="evenodd" d="M11.3114 13.2701C11.3114 12.8878 11.6214 12.5778 12.0037 12.5778C12.3861 12.5778 12.6966 12.8878 12.6966 13.2701C12.6966 13.6525 12.3867 13.9624 12.0043 13.9624C11.6219 13.9624 11.3114 13.6525 11.3114 13.2701Z" fill="black"/>
<path fill-rule="evenodd" clip-rule="evenodd" d="M11.3114 16.4792C11.3114 16.0969 11.6214 15.7869 12.0037 15.7869C12.3861 15.7869 12.6966 16.0969 12.6966 16.4792C12.6966 16.8617 12.3867 17.1715 12.0043 17.1715C11.6219 17.1715 11.3114 16.8617 11.3114 16.4792Z" fill="black"/>
<path fill-rule="evenodd" clip-rule="evenodd" d="M7.60046 13.2701C7.60046 12.8878 7.91042 12.5778 8.29277 12.5778C8.67513 12.5778 8.98571 12.8878 8.98571 13.2701C8.98571 13.6525 8.67576 13.9624 8.2934 13.9624C7.91105 13.9624 7.60046 13.6525 7.60046 13.2701Z" fill="black"/>
<path fill-rule="evenodd" clip-rule="evenodd" d="M7.60046 16.4792C7.60046 16.0969 7.91042 15.7869 8.29277 15.7869C8.67513 15.7869 8.98571 16.0969 8.98571 16.4792C8.98571 16.8617 8.67576 17.1715 8.2934 17.1715C7.91105 17.1715 7.60046 16.8617 7.60046 16.4792Z" fill="black"/>
<path fill-rule="evenodd" clip-rule="evenodd" d="M15.0126 13.2701C15.0126 12.8878 15.3225 12.5778 15.7049 12.5778C16.0872 12.5778 16.3978 12.8878 16.3978 13.2701C16.3978 13.6525 16.0879 13.9624 15.7055 13.9624C15.3232 13.9624 15.0126 13.6525 15.0126 13.2701Z" fill="black"/>
</svg>
