<svg width="24" height="24" viewBox="0 0 24 24" fill="none" xmlns="http://www.w3.org/2000/svg">
<path fill-rule="evenodd" clip-rule="evenodd" d="M3.90735 9.84374C3.90735 9.46139 4.2173 9.15143 4.59966 9.15143H19.4071C19.7895 9.15143 20.0994 9.46139 20.0994 9.84374C20.0994 10.2261 19.7895 10.5361 19.4071 10.5361H4.59966C4.2173 10.5361 3.90735 10.2261 3.90735 9.84374Z" fill="black"/>
<path fill-rule="evenodd" clip-rule="evenodd" d="M15.3584 3C15.7408 3 16.0508 3.30996 16.0508 3.69231V6.42622C16.0508 6.80857 15.7408 7.11853 15.3584 7.11853C14.9761 7.11853 14.6661 6.80857 14.6661 6.42622V3.69231C14.6661 3.30996 14.9761 3 15.3584 3Z" fill="black"/>
<path fill-rule="evenodd" clip-rule="evenodd" d="M8.64653 3C9.02888 3 9.33884 3.30996 9.33884 3.69231V6.42622C9.33884 6.80857 9.02888 7.11853 8.64653 7.11853C8.26417 7.11853 7.95422 6.80857 7.95422 6.42622V3.69231C7.95422 3.30996 8.26417 3 8.64653 3Z" fill="black"/>
<path fill-rule="evenodd" clip-rule="evenodd" d="M5.11218 5.49468C5.9605 4.68828 7.1412 4.3125 8.48597 4.3125H15.5202C16.8679 4.3125 18.0493 4.68799 18.8964 5.49529C19.7487 6.30764 20.1726 7.47138 20.1687 8.86275C20.1687 8.86255 20.1687 8.86296 20.1687 8.86275V16.4434C20.1687 17.8349 19.7429 18.9998 18.8905 19.8135C18.043 20.6225 16.8618 21.0004 15.513 21.0004H8.48597C7.13705 21.0004 5.95485 20.6143 5.10732 19.7929C4.25637 18.9681 3.8302 17.7892 3.8302 16.3805V8.86139C3.8302 7.46923 4.2585 6.30615 5.11218 5.49468ZM6.06613 6.49824C5.54814 6.99061 5.21482 7.75583 5.21482 8.86139V16.3805C5.21482 17.5092 5.55027 18.294 6.07098 18.7986C6.59513 19.3067 7.39466 19.6157 8.48597 19.6157H15.513C16.6115 19.6157 17.412 19.3106 17.9344 18.8119C18.4519 18.318 18.7841 17.5505 18.7841 16.4434V8.86139V8.85939C18.7873 7.75333 18.4568 6.98902 17.9411 6.49761C17.4201 6.00106 16.6197 5.69712 15.5202 5.69712H8.48597C7.39051 5.69712 6.58948 6.00076 6.06613 6.49824Z" fill="black"/>
</svg>
