<svg width="24" height="24" viewBox="0 0 24 24" fill="none" xmlns="http://www.w3.org/2000/svg">
<path fill-rule="evenodd" clip-rule="evenodd" d="M20.0929 9.84557C20.0929 9.46321 19.7829 9.15326 19.4006 9.15326H4.5931C4.21077 9.15326 3.9008 9.46321 3.9008 9.84557C3.9008 10.2279 4.21077 10.5379 4.5931 10.5379H19.4006C19.7829 10.5379 20.0929 10.2279 20.0929 9.84557Z" fill="black"/>
<path fill-rule="evenodd" clip-rule="evenodd" d="M8.64278 3C8.26044 3 7.95047 3.30996 7.95047 3.69231V6.42622C7.95047 6.80857 8.26044 7.11853 8.64278 7.11853C9.02521 7.11853 9.33508 6.80857 9.33508 6.42622V3.69231C9.33508 3.30996 9.02521 3 8.64278 3Z" fill="black"/>
<path fill-rule="evenodd" clip-rule="evenodd" d="M15.3547 3C14.9723 3 14.6624 3.30996 14.6624 3.69231V6.42622C14.6624 6.80857 14.9723 7.11853 15.3547 7.11853C15.737 7.11853 16.047 6.80857 16.047 6.42622V3.69231C16.047 3.30996 15.737 3 15.3547 3Z" fill="black"/>
<path fill-rule="evenodd" clip-rule="evenodd" d="M18.8881 5.49468C18.0397 4.68828 16.859 4.3125 15.5143 4.3125H8.48008C7.13229 4.3125 5.95094 4.68799 5.10383 5.49529C4.25156 6.30764 3.82768 7.47138 3.83156 8.86275C3.83156 8.86255 3.83156 8.86296 3.83156 8.86275V16.4434C3.83156 17.8349 4.25737 18.9998 5.10974 19.8135C5.95722 20.6225 7.13848 21.0004 8.48728 21.0004H15.5143C16.8632 21.0004 18.0454 20.6143 18.8929 19.7929C19.7439 18.9681 20.17 17.7892 20.17 16.3805V8.86139C20.17 7.46923 19.7417 6.30615 18.8881 5.49468ZM17.9341 6.49824C18.4521 6.99061 18.7854 7.75583 18.7854 8.86139V16.3805C18.7854 17.5092 18.45 18.294 17.9293 18.7986C17.4051 19.3067 16.6056 19.6157 15.5143 19.6157H8.48728C7.38872 19.6157 6.58823 19.3106 6.06586 18.8119C5.54839 18.318 5.21617 17.5505 5.21617 16.4434V8.86139V8.85939C5.21294 7.75333 5.54349 6.98902 6.05912 6.49761C6.58011 6.00106 7.38051 5.69712 8.48008 5.69712H15.5143C16.6097 5.69712 17.4108 6.00076 17.9341 6.49824Z" fill="black"/>
<path fill-rule="evenodd" clip-rule="evenodd" d="M12.6886 13.2701C12.6886 12.8878 12.3786 12.5778 11.9963 12.5778C11.6139 12.5778 11.3034 12.8878 11.3034 13.2701C11.3034 13.6525 11.6133 13.9624 11.9957 13.9624C12.3781 13.9624 12.6886 13.6525 12.6886 13.2701Z" fill="black"/>
<path fill-rule="evenodd" clip-rule="evenodd" d="M12.6886 16.4792C12.6886 16.0969 12.3786 15.7869 11.9963 15.7869C11.6139 15.7869 11.3034 16.0969 11.3034 16.4792C11.3034 16.8617 11.6133 17.1715 11.9957 17.1715C12.3781 17.1715 12.6886 16.8617 12.6886 16.4792Z" fill="black"/>
<path fill-rule="evenodd" clip-rule="evenodd" d="M16.3995 13.2701C16.3995 12.8878 16.0896 12.5778 15.7072 12.5778C15.3249 12.5778 15.0143 12.8878 15.0143 13.2701C15.0143 13.6525 15.3242 13.9624 15.7066 13.9624C16.0889 13.9624 16.3995 13.6525 16.3995 13.2701Z" fill="black"/>
<path fill-rule="evenodd" clip-rule="evenodd" d="M16.3995 16.4792C16.3995 16.0969 16.0896 15.7869 15.7072 15.7869C15.3249 15.7869 15.0143 16.0969 15.0143 16.4792C15.0143 16.8617 15.3242 17.1715 15.7066 17.1715C16.0889 17.1715 16.3995 16.8617 16.3995 16.4792Z" fill="black"/>
<path fill-rule="evenodd" clip-rule="evenodd" d="M8.98743 13.2701C8.98743 12.8878 8.67746 12.5778 8.29512 12.5778C7.91278 12.5778 7.60217 12.8878 7.60217 13.2701C7.60217 13.6525 7.91214 13.9624 8.29447 13.9624C8.67681 13.9624 8.98743 13.6525 8.98743 13.2701Z" fill="black"/>
</svg>
