<svg width="24" height="24" viewBox="0 0 24 24" fill="none" xmlns="http://www.w3.org/2000/svg">
<path d="M12 0C18.6274 0 24 5.37258 24 12C24 18.6274 18.6274 24 12 24C5.37258 24 0 18.6274 0 12C0 5.37258 5.37258 0 12 0ZM12.2568 3.71582C12.1396 3.65417 11.8474 3.65418 11.7334 3.71582C11.6842 3.74559 11.4792 3.97365 11.2744 4.23047C9.88805 5.96184 9.29221 7.14329 9.37988 7.97656C9.42879 8.43546 9.6267 8.97666 9.86426 9.29883C10.2126 9.7642 10.7765 10.1546 11.2939 10.2881L11.4629 10.3301L11.4727 10.6914L11.4629 11.8672L11.4287 11.9756C7.32943 11.6659 4.08306 8.24352 4.08301 12.417C4.08324 16.7818 7.63514 20.334 12 20.334C16.3649 20.334 19.9168 16.7818 19.917 12.417C19.9169 8.21536 16.6267 11.7135 12.4883 11.9824V10.3398L12.5791 10.3242C12.7743 10.2819 13.1425 10.1354 13.3379 10.0215C13.4583 9.95317 13.6765 9.77072 13.8555 9.5918C14.1027 9.34455 14.1938 9.22336 14.3174 8.98926C14.5647 8.51089 14.6721 7.96021 14.6006 7.50781C14.48 6.72015 13.8746 5.66171 12.7227 4.22656C12.5179 3.97303 12.3092 3.74228 12.2568 3.71582ZM11.5869 8.42578C11.7108 8.20152 12.0262 8.12024 12.2441 8.25684C12.4425 8.38044 12.4561 8.44601 12.4561 9.42188V10.3008L12.3838 10.3203C12.2853 10.3463 11.7425 10.3463 11.6123 10.3203L11.5088 10.2979L11.5186 9.41602C11.5283 8.64218 11.535 8.52014 11.5869 8.42578Z" fill="black"/>
</svg>
