<svg width="24" height="24" viewBox="0 0 24 24" fill="none" xmlns="http://www.w3.org/2000/svg">
<path d="M11.6797 2.05859C11.8164 1.98438 12.168 1.98438 12.3086 2.05859C12.3711 2.08987 12.6211 2.36721 12.8672 2.67188C14.25 4.39452 14.9766 5.66407 15.1211 6.60938C15.207 7.15234 15.0781 7.81251 14.7812 8.38672C14.6328 8.66795 14.5234 8.81251 14.2266 9.10938C14.0117 9.32421 13.75 9.54297 13.6055 9.625C13.3711 9.76172 12.9297 9.9375 12.6953 9.98828L12.5859 10.0078V11.9785C17.5521 11.6558 21.5 7.45784 21.5 12.5C21.5 17.738 17.238 22 12 22C6.762 22 2.5 17.738 2.5 12.5C2.5 7.49162 6.39526 11.5991 11.3145 11.9707L11.3555 11.8398L11.3672 10.4297L11.3555 9.99609L11.1523 9.94531C10.5313 9.78516 9.85547 9.3164 9.4375 8.75781C9.15235 8.3711 8.91407 7.72265 8.85547 7.17188C8.75 6.17188 9.46485 4.7539 11.1289 2.67578C11.375 2.36721 11.6211 2.09378 11.6797 2.05859ZM12.293 7.50781C12.0312 7.34375 11.6523 7.44141 11.5039 7.71094C11.4414 7.82421 11.4336 7.96882 11.4219 8.89844L11.4102 9.95703L11.5352 9.98438C11.6914 10.0156 12.3437 10.0156 12.4609 9.98438L12.5469 9.96094V8.90625C12.5469 7.7344 12.5312 7.65624 12.293 7.50781Z" fill="black"/>
</svg>
