<svg width="24" height="24" viewBox="0 0 24 24" fill="none" xmlns="http://www.w3.org/2000/svg">
<path fill-rule="evenodd" clip-rule="evenodd" d="M12 4.38462C7.79381 4.38462 4.38462 7.79381 4.38462 12C4.38462 16.2054 7.79386 19.6154 12 19.6154C16.2062 19.6154 19.6154 16.2054 19.6154 12C19.6154 7.79381 16.2062 4.38462 12 4.38462ZM3 12C3 7.02911 7.02911 3 12 3C16.9709 3 21 7.02911 21 12C21 16.9699 16.971 21 12 21C7.02906 21 3 16.9699 3 12Z" fill="black"/>
<path fill-rule="evenodd" clip-rule="evenodd" d="M11.6962 8.14746C12.0786 8.14746 12.3885 8.45742 12.3885 8.83977V12.2299L14.9819 13.7797C15.3102 13.9759 15.4172 14.401 15.2211 14.7292C15.0249 15.0574 14.5998 15.1644 14.2716 14.9683L11.341 13.2169C11.1319 13.092 11.0039 12.8664 11.0039 12.6227V8.83977C11.0039 8.45742 11.3139 8.14746 11.6962 8.14746Z" fill="black"/>
</svg>
