<svg width="24" height="24" viewBox="0 0 24 24" fill="none" xmlns="http://www.w3.org/2000/svg">
<path d="M15.6953 21H8.3513C7.24735 20.9775 6.19751 20.5176 5.43247 19.7214C4.66744 18.9252 4.24979 17.8578 4.2713 16.7538V7.068C4.29909 5.98398 4.74755 4.9533 5.52178 4.19406C6.296 3.43482 7.33526 3.0066 8.41961 3H13.6516C13.9998 3.00068 14.3444 3.07139 14.6647 3.20793C14.985 3.34446 15.2746 3.54403 15.5162 3.79477L19.0184 7.44C19.4805 7.92134 19.7374 8.5635 19.7347 9.23077V16.7658C19.746 17.8589 19.3301 18.9131 18.5756 19.704C17.8211 20.4948 16.7877 20.9598 15.6953 21ZM8.42238 4.38462C7.70062 4.38719 7.00815 4.67034 6.49136 5.17421C5.97458 5.67807 5.67399 6.36315 5.65315 7.08462V16.7658C5.64259 17.1313 5.7045 17.4952 5.83531 17.8366C5.96611 18.178 6.16321 18.4901 6.41526 18.7549C6.6673 19.0197 6.96929 19.232 7.30379 19.3796C7.63831 19.5271 7.99871 19.6069 8.36422 19.6145H15.6676C16.3967 19.5814 17.0843 19.2661 17.5848 18.7351C18.0855 18.2042 18.3599 17.4992 18.3501 16.7695V9.23077C18.3512 8.92107 18.2316 8.6231 18.0168 8.4L14.5165 4.75292C14.4044 4.63665 14.2701 4.54406 14.1215 4.48063C13.9729 4.41721 13.8131 4.38425 13.6516 4.38369L8.42238 4.38462Z" fill="black"/>
<path d="M18.9846 9.47583H16.4553C15.6468 9.47242 14.8724 9.149 14.3016 8.57628C13.7308 8.00355 13.4099 7.22813 13.4092 6.41952V3.74999C13.4092 3.56638 13.4822 3.39028 13.612 3.26045C13.7419 3.13062 13.9179 3.05768 14.1015 3.05768C14.2851 3.05768 14.4612 3.13062 14.5911 3.26045C14.7209 3.39028 14.7938 3.56638 14.7938 3.74999V6.41952C14.7938 6.86193 14.9692 7.28629 15.2815 7.59963C15.5938 7.91298 16.0176 8.08975 16.4599 8.09122H18.9873C19.1709 8.09122 19.3471 8.16416 19.4769 8.29399C19.6067 8.42382 19.6796 8.59992 19.6796 8.78352C19.6796 8.96713 19.6067 9.14323 19.4769 9.27306C19.3471 9.40289 19.1709 9.47583 18.9873 9.47583H18.9846Z" fill="black"/>
</svg>
