<svg width="24" height="24" viewBox="0 0 24 24" fill="none" xmlns="http://www.w3.org/2000/svg">
<path fill-rule="evenodd" clip-rule="evenodd" d="M16.5907 20.0746C16.3142 19.753 15.8294 19.319 15.4406 18.9706C15.2342 18.7862 15.0461 18.6173 14.9049 18.4819C13.7126 17.3366 13.3603 15.912 13.8509 14.2291C10.9363 16.1779 11.7005 18.9168 11.7398 19.0502C11.8521 19.4304 11.6381 19.8317 11.2589 19.9459C10.8777 20.0602 10.4803 19.8499 10.3632 19.4717C10.3469 19.4208 8.86657 14.3635 15.0701 12.0096C15.3533 11.9021 15.6787 11.9856 15.8755 12.2179C16.0723 12.4522 16.1001 12.7843 15.9456 13.0474C14.4518 15.5914 15.2064 16.7741 15.9024 17.4432C16.0339 17.5699 16.2096 17.7264 16.4006 17.8973C16.8393 18.2899 17.3347 18.7344 17.6736 19.1251C18.6883 17.9376 19.2969 16.4006 19.271 14.7322C19.271 14.713 19.271 14.6784 19.2691 14.6448C19.3017 12.1738 18.4752 9.75456 16.9248 7.81442C15.1661 5.82242 12.9417 4.25186 10.4909 3.27074C10.3113 3.19778 10.1021 3.2429 9.96673 3.38402C9.83041 3.52514 9.79393 3.73442 9.87457 3.91298C9.87457 3.91298 10.3613 4.99586 10.439 5.18306C10.9805 6.60386 10.8605 8.17634 10.1193 9.48386C9.99361 9.68736 9.83041 9.92928 9.65089 10.1952C9.19105 10.8758 8.66113 11.6582 8.31649 12.4253C8.00449 11.4 7.65889 9.89184 7.59073 9.09986C7.57537 8.90786 7.44481 8.7437 7.26145 8.68418C7.07809 8.6237 6.87649 8.68034 6.75073 8.82626C5.36641 10.4227 4.65025 12.4637 4.73473 14.5795C4.84129 16.7069 5.87521 18.6768 7.58593 19.9958C8.84161 20.8877 10.3257 21.3859 11.8406 21.4349C12.1257 21.4656 12.4118 21.4762 12.6998 21.4762H12.7085C14.1859 21.4512 15.5405 20.9395 16.6339 20.1062C16.6205 20.0938 16.6032 20.089 16.5907 20.0746Z" fill="black"/>
</svg>
