<svg width="24" height="24" viewBox="0 0 24 24" fill="none" xmlns="http://www.w3.org/2000/svg">
<path d="M12 0C18.6274 0 24 5.37258 24 12C24 18.6274 18.6274 24 12 24C5.37258 24 0 18.6274 0 12C0 5.37258 5.37258 0 12 0ZM10.7422 4.72559C10.5926 4.6649 10.4184 4.70276 10.3057 4.82031C10.1922 4.93786 10.1614 5.11204 10.2285 5.26074C10.2285 5.26074 10.6344 6.16334 10.6992 6.31934C11.1504 7.50331 11.0502 8.81375 10.4326 9.90332C10.3279 10.0729 10.1915 10.2746 10.042 10.4961C9.65884 11.0632 9.21782 11.7154 8.93066 12.3545C8.67066 11.5001 8.382 10.243 8.3252 9.58301C8.31231 9.42311 8.2035 9.2859 8.05078 9.23633C7.89814 9.18622 7.73065 9.23403 7.62598 9.35547C6.47242 10.6858 5.87497 12.3863 5.94531 14.1494C6.03411 15.9221 6.89585 17.5639 8.32129 18.6631C9.36768 19.4063 10.6048 19.8215 11.8672 19.8623C12.1047 19.8879 12.3431 19.8965 12.583 19.8965H12.5908C13.8218 19.8756 14.9502 19.4492 15.8613 18.7549C15.8502 18.7447 15.8355 18.7404 15.8252 18.7285C15.5947 18.4606 15.191 18.0989 14.8672 17.8086C14.6952 17.655 14.5385 17.5141 14.4209 17.4014C13.4274 16.447 13.1332 15.2598 13.542 13.8574C11.1147 15.4805 11.7498 17.7615 11.7832 17.875C11.8768 18.1917 11.6987 18.5268 11.3828 18.6221C11.0652 18.7173 10.7334 18.5417 10.6357 18.2266C10.6221 18.1842 9.38902 13.9694 14.5586 12.0078C14.7945 11.9184 15.0655 11.9881 15.2295 12.1816C15.3935 12.3768 15.4169 12.6538 15.2881 12.873C14.0434 14.9929 14.672 15.9785 15.252 16.5361C15.3615 16.6417 15.5079 16.7718 15.667 16.9141C16.0325 17.2412 16.4451 17.612 16.7275 17.9375C17.5731 16.9479 18.0812 15.6668 18.0596 14.2764C18.0596 14.2603 18.0592 14.2318 18.0576 14.2041C18.0848 12.1449 17.3955 10.1285 16.1035 8.51172C14.638 6.85191 12.7844 5.54312 10.7422 4.72559Z" fill="black"/>
</svg>
