<svg width="24" height="24" viewBox="0 0 24 24" fill="none" xmlns="http://www.w3.org/2000/svg">
<path fill-rule="evenodd" clip-rule="evenodd" d="M14.1483 8.83545C14.1985 8.70041 14.2465 8.56549 14.2919 8.43141C14.5302 7.72626 14.7072 7.00694 14.7072 6.4054C14.7072 5.66397 14.4123 4.95308 13.8888 4.42844L13.8881 4.42778C13.3634 3.90421 12.6526 3.60938 11.9112 3.60938C11.1697 3.60938 10.4588 3.90421 9.93412 4.42777L9.93347 4.42844C9.4099 4.95308 9.11509 5.66397 9.11509 6.4054C9.11509 7.00695 9.29138 7.72301 9.52925 8.42516C9.57375 8.55666 9.62092 8.68897 9.67021 8.82144C9.40713 8.97605 9.16149 9.15722 8.93704 9.36126C8.82089 9.26754 8.70412 9.17597 8.5873 9.08743C7.99354 8.63739 7.36576 8.23999 6.79311 8.05163C6.0895 7.81934 5.32133 7.8765 4.65976 8.20989C3.99649 8.54377 3.49547 9.12809 3.26334 9.83091C3.03086 10.5348 3.08816 11.3022 3.4215 11.9646C3.75505 12.6263 4.33833 13.1287 5.04185 13.3611C5.61428 13.5498 6.35531 13.6038 7.1004 13.5954C7.26516 13.5936 7.43214 13.5887 7.59996 13.5811C7.65526 13.8294 7.73152 14.0697 7.82679 14.3002C7.70064 14.373 7.57622 14.4472 7.45447 14.5223C6.82054 14.9138 6.22344 15.3559 5.84119 15.8221C5.37073 16.3945 5.14694 17.1316 5.21922 17.8688C5.29136 18.6079 5.65561 19.286 6.22738 19.7561C6.80004 20.2267 7.53642 20.4501 8.27445 20.3782C9.01194 20.3058 9.69089 19.9431 10.1614 19.3707C10.544 18.9049 10.8616 18.2333 11.1226 17.5353C11.19 17.3552 11.2545 17.1707 11.3161 16.9842C11.5062 17.0094 11.7002 17.0223 11.8972 17.0223C12.0834 17.0223 12.2668 17.0107 12.4469 16.9883C12.5081 17.1734 12.5722 17.3565 12.6391 17.5353C12.9001 18.2333 13.2179 18.9051 13.6004 19.3709C14.0709 19.9432 14.75 20.3058 15.4875 20.3782C16.2255 20.4502 16.9616 20.2267 17.5343 19.7561C18.106 19.286 18.4704 18.6077 18.5425 17.8686C18.6147 17.1313 18.391 16.3945 17.9205 15.8221C17.5382 15.3559 16.9411 14.9138 16.3072 14.5223C16.194 14.4524 16.0785 14.3835 15.9614 14.3156C16.0596 14.0806 16.1379 13.8353 16.1944 13.5816C16.3586 13.5889 16.5219 13.5937 16.6831 13.5954C17.4282 13.6038 18.1694 13.5498 18.7419 13.361C19.4454 13.1286 20.0286 12.626 20.3622 11.9644C20.6955 11.302 20.7527 10.5348 20.5201 9.83091C20.288 9.12799 19.7869 8.54361 19.1235 8.20976C18.4618 7.87632 17.6949 7.81938 16.9905 8.05161C16.4178 8.23996 15.79 8.63738 15.1962 9.08743C15.0814 9.17445 14.9666 9.26439 14.8525 9.35644C14.6363 9.16049 14.4004 8.98574 14.1483 8.83545ZM8.81959 12.6198C8.81959 10.9205 10.1979 9.5421 11.8972 9.5421C13.5973 9.5421 14.9749 10.9204 14.9749 12.6198C14.9749 14.3199 13.5973 15.6974 11.8972 15.6974C10.1978 15.6974 8.81959 14.3198 8.81959 12.6198Z" fill="black"/>
</svg>
