<svg width="24" height="24" viewBox="0 0 24 24" fill="none" xmlns="http://www.w3.org/2000/svg">
<path d="M12 0C18.6274 0 24 5.37258 24 12C24 18.6274 18.6274 24 12 24C5.37258 24 0 18.6274 0 12C0 5.37258 5.37258 0 12 0ZM11.9258 5.00781C11.308 5.00787 10.7155 5.25327 10.2783 5.68945V5.69043C9.84201 6.12763 9.5957 6.72003 9.5957 7.33789C9.59571 7.83908 9.74324 8.43551 9.94141 9.02051C9.97848 9.13009 10.0175 9.24118 10.0586 9.35156C9.83941 9.48039 9.63428 9.63078 9.44727 9.80078C9.35067 9.72284 9.2534 9.64688 9.15625 9.57324C8.66153 9.19827 8.13828 8.86696 7.66113 8.70996C7.07479 8.51639 6.43413 8.56397 5.88281 8.8418C5.33031 9.12004 4.91314 9.60688 4.71973 10.1924C4.52599 10.779 4.57378 11.4188 4.85156 11.9707C5.12946 12.5219 5.61524 12.9401 6.20117 13.1338C6.67819 13.2911 7.2961 13.3361 7.91699 13.3291C8.05419 13.3276 8.19327 13.3237 8.33301 13.3174C8.37909 13.5242 8.44307 13.7249 8.52246 13.917C8.41735 13.9777 8.31336 14.039 8.21191 14.1016C7.68364 14.4278 7.1867 14.7971 6.86816 15.1855C6.47615 15.6625 6.28939 16.2763 6.34961 16.8906C6.40972 17.5065 6.71298 18.0722 7.18945 18.4639C7.66664 18.856 8.28057 19.0414 8.89551 18.9814C9.50993 18.9211 10.0757 18.6194 10.4678 18.1426C10.7866 17.7544 11.0511 17.1939 11.2686 16.6123C11.3247 16.4623 11.3784 16.3086 11.4297 16.1533C11.588 16.1742 11.75 16.1855 11.9141 16.1855C12.0691 16.1855 12.2221 16.1759 12.3721 16.1572C12.423 16.3112 12.4765 16.4635 12.5322 16.6123C12.7497 17.1939 13.0152 17.7544 13.334 18.1426C13.726 18.6193 14.2918 18.9211 14.9062 18.9814C15.5212 19.0414 16.1351 18.8561 16.6123 18.4639C17.0887 18.0722 17.392 17.5065 17.4521 16.8906C17.5124 16.2763 17.3256 15.6625 16.9336 15.1855C16.6151 14.7971 16.118 14.4278 15.5898 14.1016C15.4955 14.0433 15.3983 13.9862 15.3008 13.9297C15.3825 13.734 15.448 13.5296 15.4951 13.3184C15.6319 13.3244 15.7681 13.3276 15.9023 13.3291C16.5233 13.3361 17.1411 13.2911 17.6182 13.1338C18.2043 12.9402 18.6907 12.522 18.9688 11.9707C19.2465 11.4187 19.2943 10.7789 19.1006 10.1924C18.9072 9.60672 18.4892 9.12003 17.9365 8.8418C17.3852 8.56397 16.7461 8.51655 16.1592 8.70996C15.6819 8.86692 15.1579 9.1982 14.6631 9.57324C14.5676 9.64565 14.4719 9.72029 14.377 9.79688C14.1968 9.63364 14.0001 9.48848 13.79 9.36328C13.8319 9.25078 13.8724 9.13807 13.9102 9.02637C14.1088 8.43876 14.2558 7.83916 14.2559 7.33789C14.2559 6.72003 14.0095 6.12665 13.5732 5.68945C13.136 5.25333 12.5435 5.00781 11.9258 5.00781ZM11.9141 9.95215C13.3308 9.95215 14.4795 11.1004 14.4795 12.5166C14.4794 13.9333 13.3308 15.0811 11.9141 15.0811C10.4981 15.0809 9.34968 13.9331 9.34961 12.5166C9.34961 11.1006 10.4981 9.95232 11.9141 9.95215Z" fill="black"/>
</svg>
