<svg width="24" height="24" viewBox="0 0 24 24" fill="none" xmlns="http://www.w3.org/2000/svg">
<path fill-rule="evenodd" clip-rule="evenodd" d="M20.5688 10.3705C20.5688 9.19552 20.1689 8.07677 19.4351 7.17683C19.7277 6.13014 19.6566 5.02105 19.2259 4.01302C19.1486 3.83198 18.9939 3.69488 18.8058 3.63951C18.6046 3.57888 17.514 3.36707 15.3309 4.76442C13.5443 4.32588 11.675 4.32588 9.88652 4.76442C7.70085 3.36619 6.61197 3.57975 6.4116 3.63951C6.22264 3.69488 6.06797 3.83198 5.99151 4.01302C5.56 5.02105 5.48882 6.13014 5.78148 7.17683C5.04237 8.08555 4.64162 9.21574 4.64865 10.3969C4.64865 14.7524 7.13049 16.0804 9.4137 16.5593C9.17818 17.0681 9.07096 17.6244 9.11051 18.1666V18.3715C8.37316 18.5393 7.83444 18.5191 7.40557 18.3828L6.62076 17.9241C6.36589 17.6965 6.14355 17.4249 5.91593 17.1358C5.47388 16.5752 5.01688 15.9951 4.25053 15.8044C3.89549 15.7138 3.53956 15.9309 3.4508 16.2842C3.36291 16.6366 3.57823 16.9943 3.93064 17.0831C4.2602 17.1648 4.54759 17.5295 4.87979 17.9514C5.58637 18.8478 6.619 20.1643 9.11226 19.7134C9.11051 19.7319 9.11051 19.7512 9.11051 19.7697C9.11226 20.1326 9.40668 20.4253 9.76963 20.4253H9.77227L15.4505 20.3989C15.8134 20.3972 16.1069 20.1028 16.1069 19.7398L16.1043 18.2186C16.15 17.6411 16.0454 17.0655 15.8073 16.5452C18.0905 16.0927 20.5688 14.7805 20.5688 10.3705Z" fill="black"/>
</svg>
