<svg width="24" height="24" viewBox="0 0 24 24" fill="none" xmlns="http://www.w3.org/2000/svg">
<path fill-rule="evenodd" clip-rule="evenodd" d="M17.3726 6.76172H7.62763C5.24263 6.76172 3.64062 8.51772 3.64062 11.1317V17.2517C3.64062 19.8657 5.24263 21.6217 7.62663 21.6217H17.3726C19.7566 21.6217 21.3576 19.8657 21.3576 17.2517V11.1317C21.3576 8.51772 19.7566 6.76172 17.3726 6.76172ZM13.25 21.6258V17.4258C13.25 17.0058 12.91 16.6758 12.5 16.6758C12.08 16.6758 11.75 17.0058 11.75 17.4258V21.6258H13.25ZM16.1005 6.51109H13.4905C13.8565 5.46409 14.6525 3.87109 16.1005 3.87109C16.7905 3.87109 17.3515 4.46309 17.3515 5.19109C17.3515 5.91909 16.7905 6.51109 16.1005 6.51109ZM7.64453 5.19109C7.64453 4.46309 8.20553 3.87109 8.89553 3.87109C10.3445 3.87109 11.1405 5.46409 11.5065 6.51109H8.89553C8.20553 6.51109 7.64453 5.91909 7.64453 5.19109ZM16.1005 2.37109C14.2435 2.37109 13.1325 3.74309 12.4985 5.01409C11.8645 3.74309 10.7535 2.37109 8.89553 2.37109C7.37853 2.37109 6.14453 3.63609 6.14453 5.19109C6.14453 6.74609 7.37853 8.01109 8.89553 8.01109H10.7735C10.3985 8.86509 10.1785 9.78509 10.1355 10.7581C10.0545 12.6131 9.58653 13.7721 8.52253 14.7611C8.21953 15.0441 8.20153 15.5181 8.48353 15.8221C8.63153 15.9801 8.83153 16.0611 9.03353 16.0611C9.21653 16.0611 9.39953 15.9941 9.54353 15.8601C11.2705 14.2551 11.5675 12.3251 11.6335 10.8241C11.6635 10.1541 11.7955 9.51609 12.0195 8.91909C12.1485 9.31009 12.3155 9.67809 12.5335 9.99709C12.8205 10.4121 13.1925 10.7101 13.5205 10.9721C13.7655 11.1671 13.9965 11.3521 14.1605 11.5581C14.5675 12.0691 14.5985 12.8581 14.2545 13.9691C14.1325 14.3651 14.3535 14.7851 14.7495 14.9071C14.8235 14.9301 14.8975 14.9411 14.9715 14.9411C15.2915 14.9411 15.5875 14.7341 15.6875 14.4121C16.1895 12.7911 16.0735 11.5521 15.3335 10.6241C15.0655 10.2861 14.7425 10.0281 14.4565 9.80009C14.1855 9.58309 13.9295 9.37809 13.7695 9.14709C13.5585 8.83909 13.4125 8.44209 13.3295 8.01109H16.1005C17.6175 8.01109 18.8515 6.74609 18.8515 5.19109C18.8515 3.63609 17.6175 2.37109 16.1005 2.37109Z" fill="black"/>
</svg>
