<svg width="24" height="24" viewBox="0 0 24 24" fill="none" xmlns="http://www.w3.org/2000/svg">
<path d="M12 0C18.6274 0 24 5.37258 24 12C24 18.6274 18.6274 24 12 24C5.37258 24 0 18.6274 0 12C0 5.37258 5.37258 0 12 0ZM14.8496 4.37695C13.3797 4.3771 12.4999 5.46359 11.998 6.46973C11.4961 5.46352 10.6164 4.37695 9.14551 4.37695C7.94484 4.37721 6.9679 5.3786 6.96777 6.60938C6.96777 7.10428 7.12767 7.5611 7.39453 7.93164C5.92694 8.25186 4.98538 9.53002 4.98535 11.3125V16.1572C4.98535 18.2266 6.25427 19.6172 8.1416 19.6172H11.4053V19.6201H12.5928V19.6172H15.8574C17.7445 19.617 19.0117 18.2265 19.0117 16.1572V11.3125C19.0117 9.52856 18.0696 8.25055 16.6006 7.93164C16.8676 7.56104 17.0273 7.10444 17.0273 6.60938C17.0272 5.37844 16.0505 4.37695 14.8496 4.37695ZM11.999 15.7012C12.3234 15.7012 12.5925 15.9627 12.5928 16.2949V19.6172H11.4053V16.2949C11.4055 15.9628 11.6669 15.7014 11.999 15.7012ZM15.8574 7.85352C16.1176 7.85354 16.3657 7.88065 16.6006 7.93164C16.2036 8.48259 15.5676 8.8418 14.8496 8.8418H12.6562C12.722 9.18301 12.8378 9.49738 13.0049 9.74121C13.1315 9.92408 13.3343 10.087 13.5488 10.2588C13.7751 10.4392 14.0311 10.6437 14.2432 10.9111C14.8286 11.6457 14.9197 12.6263 14.5225 13.9092C14.4433 14.1641 14.2094 14.3281 13.9561 14.3281C13.8975 14.3281 13.8388 14.32 13.7803 14.3018C13.4668 14.2052 13.2921 13.8721 13.3887 13.5586C13.6608 12.6794 13.6364 12.0549 13.3145 11.6504C13.1847 11.4874 13.0015 11.3408 12.8076 11.1865C12.548 10.9791 12.2536 10.7426 12.0264 10.4141C11.8538 10.1615 11.7213 9.87007 11.6191 9.56055C11.4418 10.0332 11.3372 10.5389 11.3135 11.0693C11.2612 12.2575 11.0261 13.7852 9.65918 15.0557C9.54518 15.1617 9.39976 15.2148 9.25488 15.2148C9.09508 15.2148 8.93642 15.1504 8.81934 15.0254C8.59654 14.7847 8.61087 14.4094 8.85059 14.1855C9.69284 13.4026 10.0638 12.4851 10.1279 11.0166C10.162 10.2464 10.336 9.51781 10.6328 8.8418H9.14551C8.42755 8.84164 7.79139 8.48268 7.39453 7.93164C7.63072 7.88011 7.88084 7.85352 8.14258 7.85352H15.8574ZM9.14551 5.56445C10.2925 5.56445 10.9231 6.82542 11.2129 7.6543H9.14551C8.59947 7.65403 8.15527 7.18555 8.15527 6.60938C8.1554 6.03331 8.59954 5.56472 9.14551 5.56445ZM14.8496 5.56445C15.3958 5.56445 15.8397 6.03315 15.8398 6.60938C15.8398 7.18571 15.3959 7.6543 14.8496 7.6543H12.7832C13.073 6.82549 13.7035 5.56467 14.8496 5.56445Z" fill="black"/>
</svg>
