<svg width="24" height="24" viewBox="0 0 24 24" fill="none" xmlns="http://www.w3.org/2000/svg">
<path fill-rule="evenodd" clip-rule="evenodd" d="M13.0398 5.18643C13.4273 5.40043 13.5385 5.87703 13.4418 6.30899C13.3163 6.86953 13.2898 7.52553 13.5821 8.11686C13.8146 8.58192 14.2159 8.94271 14.7826 9.19574C15.109 9.34149 15.4531 9.13344 15.5821 9.46686C15.8252 10.0955 15.6243 10.6354 15.3549 11.1382C15.1568 11.5081 14.7346 11.7124 14.3254 11.6193C13.9526 11.5344 13.5746 11.4192 13.2821 11.2669C12.9821 11.1169 12.6421 10.8569 12.2621 10.4969C12.0121 10.2569 11.6621 10.1669 11.3221 10.2469C11.0021 10.3169 10.7621 10.5269 10.6421 10.8169C10.3805 11.5278 10.2622 12.2701 10.2756 13.0145C10.2875 13.6752 9.77137 14.2837 9.14487 14.0735C8.5396 13.8704 7.98821 13.5506 7.51821 13.1405C7.2141 12.8751 7.24567 12.4109 7.54204 12.1369C8.25204 11.4969 8.53204 10.5169 8.28204 9.58686L8.22204 9.36686C7.96204 8.40686 8.45204 7.36686 9.37204 6.97686C9.95338 6.7233 10.3818 6.25938 10.5956 5.70336C10.8107 5.14424 11.265 4.58797 11.848 4.72608C12.2703 4.82613 12.6698 4.98212 13.0398 5.18643ZM10.7121 15.8369C14.2221 15.8369 17.0821 12.9769 17.0821 9.46686C17.0821 5.94686 14.2221 3.09686 10.7121 3.09686C7.20204 3.09686 4.34204 5.94686 4.34204 9.46686C4.34204 12.9769 7.20204 15.8369 10.7121 15.8369Z" fill="black"/>
<path fill-rule="evenodd" clip-rule="evenodd" d="M17.4727 16.2281C21.1997 12.5001 21.1997 6.43405 17.4727 2.70705C17.1797 2.41405 16.7047 2.41405 16.4117 2.70705C16.1187 2.99905 16.1187 3.47405 16.4117 3.76705C19.5547 6.91105 19.5547 12.0241 16.4117 15.1671C14.8897 16.6901 12.8657 17.5291 10.7117 17.5291C8.55868 17.5291 6.53468 16.6901 5.01168 15.1671C4.71868 14.8741 4.24368 14.8741 3.95168 15.1671C3.65868 15.4601 3.65868 15.9351 3.95168 16.2281C5.57868 17.8551 7.69068 18.8171 9.96168 18.9921V20.0131H6.89768C6.48368 20.0131 6.14768 20.3491 6.14768 20.7631C6.14768 21.1771 6.48368 21.5131 6.89768 21.5131H14.5217C14.9357 21.5131 15.2717 21.1771 15.2717 20.7631C15.2717 20.3491 14.9357 20.0131 14.5217 20.0131H11.4617V18.9921C13.7327 18.8171 15.8447 17.8561 17.4727 16.2281Z" fill="black"/>
</svg>
