<svg width="24" height="24" viewBox="0 0 24 24" fill="none" xmlns="http://www.w3.org/2000/svg">
<path fill-rule="evenodd" clip-rule="evenodd" d="M12 4.38462C7.79381 4.38462 4.38462 7.79381 4.38462 12C4.38462 16.2062 7.79381 19.6154 12 19.6154C16.2062 19.6154 19.6154 16.2062 19.6154 12C19.6154 7.79381 16.2062 4.38462 12 4.38462ZM3 12C3 7.02911 7.02911 3 12 3C16.9709 3 21 7.02911 21 12C21 16.9709 16.9709 21 12 21C7.02911 21 3 16.9709 3 12Z" fill="black"/>
<path fill-rule="evenodd" clip-rule="evenodd" d="M6.79468 4.79779C7.15411 4.6674 7.55119 4.85307 7.68158 5.2125L7.03078 5.4486C7.68158 5.2125 7.68146 5.21216 7.68158 5.2125L7.6821 5.21392L7.68279 5.21585L7.68471 5.22124L7.6906 5.23804C7.69539 5.25188 7.70187 5.27095 7.70975 5.29495C7.72552 5.34291 7.74692 5.4107 7.77161 5.49579C7.82089 5.66571 7.88369 5.9062 7.94067 6.19699C8.05367 6.77376 8.14861 7.57247 8.05541 8.42088C7.96192 9.27198 7.67515 10.2035 6.99739 10.999C6.314 11.8012 5.28519 12.4038 3.82106 12.6807C3.44537 12.7518 3.08322 12.5047 3.01218 12.129C2.94115 11.7534 3.18812 11.3912 3.56381 11.3202C4.77386 11.0914 5.49944 10.6222 5.9434 10.1011C6.39297 9.5734 6.60653 8.93015 6.67907 8.2697C6.75192 7.60656 6.67862 6.95692 6.58189 6.46323C6.53399 6.2188 6.48154 6.01854 6.4418 5.8815C6.42197 5.81312 6.40541 5.76088 6.39434 5.7272C6.38881 5.71037 6.38466 5.6982 6.38217 5.69101L6.37998 5.6847C6.24994 5.32541 6.43543 4.92812 6.79468 4.79779ZM6.3795 5.68339C6.37948 5.68333 6.37948 5.68334 6.3795 5.68339Z" fill="black"/>
<path fill-rule="evenodd" clip-rule="evenodd" d="M10.6639 13.9691C10.5596 13.9252 10.2697 13.8785 9.66298 14.3155C7.26289 16.0413 5.5321 16.377 4.46455 16.3026C4.08312 16.2761 3.79545 15.9454 3.82201 15.5639C3.84858 15.1825 4.17933 14.8948 4.56075 14.9214C5.2212 14.9674 6.6379 14.7854 8.85419 13.1917C9.62147 12.6392 10.4409 12.3734 11.2005 12.6926C11.9249 12.9972 12.319 13.7263 12.5341 14.4614C12.9728 15.9607 12.8888 18.2216 12.4437 20.4332C12.3683 20.8081 12.0033 21.0507 11.6285 20.9753C11.2536 20.8999 11.0109 20.5349 11.0864 20.1601C11.5143 18.0328 11.5511 16.0325 11.2053 14.8502C11.028 14.2446 10.8036 14.0278 10.6639 13.9691Z" fill="black"/>
<path fill-rule="evenodd" clip-rule="evenodd" d="M13.0451 3.8546L13.0454 3.85346C13.0456 3.85265 13.0454 3.85319 13.0454 3.85346L13.043 3.86441C13.0405 3.8758 13.0365 3.89512 13.0316 3.92155C13.0219 3.97454 13.0085 4.05543 12.9967 4.15783C12.9728 4.36421 12.9557 4.64937 12.9815 4.96491C13.034 5.60419 13.2525 6.28607 13.852 6.7549C14.2196 7.04219 14.5666 7.25464 14.8943 7.43972C14.9911 7.49434 15.0932 7.55024 15.1964 7.60683C15.42 7.72924 15.6495 7.85489 15.8433 7.97787C16.1469 8.17044 16.4513 8.40712 16.6915 8.74856C16.9355 9.09557 17.0813 9.50441 17.1428 9.99678C17.2132 10.5601 17.0869 11.0112 16.9115 11.3862C16.828 11.5646 16.7324 11.7277 16.6513 11.8644C16.6427 11.8788 16.6344 11.8928 16.6262 11.9066C16.5517 12.0318 16.4909 12.1342 16.4369 12.2401C16.3257 12.4579 16.2696 12.6426 16.282 12.8677C16.295 13.1055 16.3892 13.4609 16.7155 13.9986C17.0736 14.5892 17.4442 15.0854 17.7818 15.5372C17.8769 15.6645 17.9693 15.7882 18.0581 15.9095C18.2525 16.1752 18.4402 16.4446 18.5766 16.7022C18.7078 16.9504 18.8384 17.2723 18.8165 17.6265C18.7928 18.0081 18.4644 18.2983 18.0828 18.2748C17.7035 18.2514 17.4144 17.9268 17.4341 17.5482C17.4332 17.5468 17.4267 17.4897 17.3527 17.3496C17.2672 17.1882 17.1319 16.9885 16.9407 16.7272C16.8646 16.6234 16.7812 16.5117 16.6921 16.3926C16.3511 15.9364 15.9283 15.3708 15.5316 14.7168C15.1313 14.057 14.9288 13.4803 14.8994 12.9435C14.8693 12.3939 15.0248 11.9612 15.2035 11.6109C15.2792 11.4624 15.3639 11.3202 15.4352 11.2003C15.4439 11.1858 15.4523 11.1715 15.4606 11.1577C15.5416 11.0213 15.6056 10.91 15.6573 10.7994C15.7524 10.5962 15.799 10.41 15.7688 10.1685C15.7298 9.85617 15.6488 9.67302 15.5589 9.54518C15.4652 9.41177 15.3281 9.29071 15.1016 9.14705C14.9444 9.04733 14.7822 8.95866 14.5861 8.8515C14.4746 8.79058 14.3521 8.72368 14.2135 8.64536C13.8527 8.44161 13.4412 8.19112 12.9992 7.84575C11.9794 7.04822 11.671 5.92605 11.6015 5.07804C11.5664 4.64992 11.5897 4.27058 11.6213 3.99837C11.6371 3.86148 11.6553 3.74955 11.6701 3.66953C11.6776 3.62947 11.6841 3.59725 11.6892 3.57372L11.6956 3.545L11.6977 3.53569L11.6985 3.53233L11.6988 3.53098C11.6988 3.53071 11.6991 3.52984 12.368 3.6915L11.6991 3.52984C11.7889 3.1582 12.163 2.92972 12.5347 3.01953C12.9061 3.1093 13.1346 3.48313 13.0451 3.8546C13.0451 3.85458 13.0451 3.85462 13.0451 3.8546Z" fill="black"/>
</svg>
