<svg width="24" height="24" viewBox="0 0 24 24" fill="none" xmlns="http://www.w3.org/2000/svg">
<path fill-rule="evenodd" clip-rule="evenodd" d="M17.4377 10.4589H17.3823C17.0315 10.4589 16.7269 10.182 16.6992 9.82192C16.6438 9.12038 16.1638 8.52038 15.4992 8.29885C15.13 8.17885 14.9361 7.79115 15.0469 7.43115C15.1669 7.06192 15.5638 6.86808 15.9238 6.98808C17.133 7.37577 17.973 8.44654 18.0746 9.71115C18.1023 10.0896 17.8253 10.422 17.4377 10.4589ZM20.2992 7.36654C19.6715 5.81577 18.4623 4.68038 16.893 4.17269C16.0346 3.89577 15.1023 3.83115 14.1977 3.98808C13.3761 4.12654 12.6284 4.61577 12.0007 5.07731C11.4007 4.63423 10.6346 4.13577 9.80381 3.99731C8.90846 3.84962 7.98538 3.905 7.11769 4.17269C3.67461 5.28962 2.61307 9.05577 3.58231 12.0558C5.07769 16.865 11.5392 19.9204 11.8069 20.0497C11.8715 20.0774 11.9361 20.0958 12.0007 20.0958C12.0746 20.0958 12.1392 20.0774 12.1946 20.0497C12.4715 19.9297 18.8315 16.9204 20.4192 12.0558C20.9269 10.4774 20.8807 8.80654 20.2992 7.36654Z" fill="black"/>
</svg>
