<svg width="24" height="24" viewBox="0 0 24 24" fill="none" xmlns="http://www.w3.org/2000/svg">
<path d="M11.9424 14.4097H12.0864C13.6992 14.4097 15.2736 13.4017 16.224 11.7793L16.5888 11.1553L15.3408 10.4353L14.976 11.0593C14.4288 12.0001 13.3728 13.0465 12.0096 12.9697C10.6656 13.0177 9.61923 12.0001 9.07203 11.0593L8.70723 10.4353L7.45923 11.1553L7.82403 11.7793C8.77443 13.4113 10.3584 14.4097 11.9424 14.4097Z" fill="black"/>
<path fill-rule="evenodd" clip-rule="evenodd" d="M11.7121 20.8132L12.0001 20.938L12.2881 20.8132C16.8097 18.8068 21.6289 14.8708 21.6001 9.83078C21.5905 6.84515 19.9393 4.46435 17.2993 3.60995C15.2737 2.95714 13.4209 3.44674 12.0001 4.99234C10.5793 3.44674 8.72648 2.95714 6.70088 3.60995C4.06088 4.46435 2.40968 6.84515 2.40008 9.83078C2.38088 14.8804 7.20008 18.8164 11.7121 20.8132ZM7.14248 4.98275C7.58408 4.83875 7.99688 4.77154 8.40008 4.77154V4.76195C9.57128 4.76195 10.5793 5.36674 11.4049 6.55714L12.0001 7.40195L12.5953 6.55714C13.7089 4.96354 15.1489 4.42595 16.8577 4.98275C19.2769 5.76995 20.1601 8.00674 20.1601 9.84038C20.1793 14.0836 15.8401 17.5876 12.0001 19.3636C8.16008 17.5876 3.82088 14.0836 3.84008 9.84038C3.84008 8.00674 4.71368 5.76035 7.14248 4.98275Z" fill="black"/>
</svg>
