<svg width="24" height="24" viewBox="0 0 24 24" fill="none" xmlns="http://www.w3.org/2000/svg">
<path d="M12 0C18.6274 0 24 5.37258 24 12C24 18.6274 18.6274 24 12 24C5.37258 24 0 18.6274 0 12C0 5.37258 5.37258 0 12 0ZM16.0771 5.97754C15.3618 5.74684 14.5848 5.69249 13.8311 5.82324C13.1466 5.93869 12.524 6.3469 12.001 6.73145C11.501 6.36223 10.8622 5.94645 10.1699 5.83105C9.42384 5.70798 8.65468 5.75449 7.93164 5.97754C5.06241 6.90831 4.17766 10.0468 4.98535 12.5469C6.23136 16.5532 11.613 19.099 11.8389 19.208C11.8927 19.2311 11.9471 19.2461 12.001 19.2461C12.0624 19.246 12.116 19.231 12.1621 19.208C12.3929 19.108 17.6923 16.6005 19.0156 12.5469C19.4387 11.2315 19.4006 9.83867 18.916 8.63867C18.3929 7.34641 17.3848 6.40061 16.0771 5.97754ZM14.5391 8.69238C14.6391 8.38494 14.9697 8.22349 15.2695 8.32324C16.2772 8.64632 16.9779 9.53893 17.0625 10.5928C17.0855 10.9081 16.8543 11.1851 16.5312 11.2158H16.4854C16.193 11.2158 15.9391 10.9846 15.916 10.6846C15.8697 10.1001 15.4697 9.60062 14.916 9.41602C14.6083 9.31602 14.4468 8.99238 14.5391 8.69238Z" fill="black"/>
</svg>
