<svg width="24" height="24" viewBox="0 0 24 24" fill="none" xmlns="http://www.w3.org/2000/svg">
<path fill-rule="evenodd" clip-rule="evenodd" d="M12 4.38462C7.79381 4.38462 4.38462 7.79381 4.38462 12C4.38462 16.2054 7.79386 19.6154 12 19.6154C16.2062 19.6154 19.6154 16.2054 19.6154 12C19.6154 7.79381 16.2062 4.38462 12 4.38462ZM3 12C3 7.02911 7.02911 3 12 3C16.9709 3 21 7.02911 21 12C21 16.9699 16.971 21 12 21C7.02906 21 3 16.9699 3 12Z" fill="black"/>
<path fill-rule="evenodd" clip-rule="evenodd" d="M11.9999 7.88379C12.3823 7.88379 12.6922 8.19374 12.6922 8.5761V8.63447C12.6922 9.01682 12.3823 9.32678 11.9999 9.32678C11.6176 9.32678 11.3076 9.01682 11.3076 8.63447V8.5761C11.3076 8.19374 11.6176 7.88379 11.9999 7.88379ZM12.0052 10.7477C12.3875 10.7477 12.6975 11.0577 12.6975 11.44V15.4089C12.6975 15.7912 12.3875 16.1012 12.0052 16.1012C11.6228 16.1012 11.3129 15.7912 11.3129 15.4089V11.44C11.3129 11.0577 11.6228 10.7477 12.0052 10.7477Z" fill="black"/>
</svg>
