<svg width="24" height="24" viewBox="0 0 24 24" fill="none" xmlns="http://www.w3.org/2000/svg">
<path fill-rule="evenodd" clip-rule="evenodd" d="M11.8508 9.68506C10.3935 9.68506 9.20789 10.8687 9.20789 12.3251C9.20789 13.7814 10.3935 14.9651 11.8508 14.9651C13.3081 14.9651 14.4927 13.7814 14.4927 12.3251C14.4927 10.8687 13.3081 9.68506 11.8508 9.68506Z" fill="black"/>
<path fill-rule="evenodd" clip-rule="evenodd" d="M16.6694 8.56107C16.1222 8.56107 15.6758 8.11755 15.6758 7.57323C15.6758 7.02699 16.1222 6.58347 16.6694 6.58347C17.2166 6.58347 17.6621 7.02699 17.6621 7.57323C17.6621 8.11755 17.2166 8.56107 16.6694 8.56107ZM11.8502 16.4052C9.6 16.4052 7.76832 14.5755 7.76832 12.3252C7.76832 10.075 9.6 8.24523 11.8502 8.24523C14.1014 8.24523 15.9322 10.075 15.9322 12.3252C15.9322 14.5755 14.1014 16.4052 11.8502 16.4052ZM16.0483 2.88843H7.95072C4.91808 2.88843 2.88 5.02155 2.88 8.19723V15.8196C2.88 18.9944 4.91808 21.1284 7.95072 21.1284H16.0474C19.081 21.1284 21.12 18.9944 21.12 15.8196V8.19723C21.12 5.02155 19.0819 2.88843 16.0483 2.88843Z" fill="black"/>
</svg>
