<svg width="24" height="24" viewBox="0 0 24 24" fill="none" xmlns="http://www.w3.org/2000/svg">
<path fill-rule="evenodd" clip-rule="evenodd" d="M14.7051 12.0308C15.3605 12.4275 16.1092 12.6437 16.8752 12.6576C17.3919 12.654 17.9019 12.5405 18.3712 12.3245C18.8406 12.1085 19.2585 11.795 19.5973 11.405C20.5136 10.336 20.9738 8.95026 20.8795 7.54555C20.8246 6.19537 20.528 4.866 20.0035 3.62062C19.9434 3.49942 19.8487 3.39873 19.7313 3.33122C19.6141 3.26372 19.4794 3.23241 19.3445 3.24124C18.0043 3.40907 16.705 3.81549 15.5082 4.44124C14.2454 5.0631 13.2757 6.15396 12.8063 7.48093C12.5171 8.34061 12.5504 9.27607 12.8996 10.1131C13.2489 10.9501 13.8906 11.6317 14.7051 12.0308ZM5.97931 15.3435C6.52788 15.6353 7.13859 15.7911 7.75995 15.7976C8.34885 15.7812 8.92651 15.6328 9.45039 15.3632C9.97423 15.0937 10.431 14.71 10.7867 14.2404C11.4129 13.5837 11.7788 12.7218 11.8165 11.8153C11.8543 10.9087 11.5611 10.0194 10.9917 9.313C10.0922 8.23029 8.80461 7.54275 7.40455 7.39762C6.06558 7.22384 4.70629 7.29105 3.39099 7.59608C3.26118 7.63558 3.14581 7.71223 3.05903 7.81655C2.97226 7.92087 2.91789 8.04831 2.90269 8.18315C2.84367 9.53259 3.02591 10.8818 3.44085 12.1672C3.83935 13.517 4.75054 14.6572 5.97931 15.3435ZM12.4304 20.5866C12.5565 20.6981 12.7191 20.7597 12.8876 20.76C12.9181 20.7601 12.9486 20.7582 12.9789 20.7545C13.0691 20.7429 13.1561 20.7137 13.235 20.6686C13.3139 20.6235 13.3832 20.5632 13.4389 20.4913C13.4945 20.4194 13.5354 20.3372 13.5593 20.2495C13.5832 20.1617 13.5895 20.0702 13.578 19.98C12.7353 13.3421 16.4082 10.0938 16.5651 9.95908C16.7003 9.83879 16.7831 9.67031 16.7957 9.48973C16.8082 9.30915 16.7495 9.13083 16.6322 8.99298C16.5149 8.85514 16.3483 8.76873 16.168 8.75226C15.9877 8.7358 15.8082 8.7906 15.6678 8.90493C15.5358 9.01452 13.3377 10.9277 12.4411 14.7226C11.1056 12.6614 8.93112 11.7785 8.8066 11.7292C8.72175 11.6957 8.63118 11.6794 8.54 11.681C8.44882 11.6826 8.35881 11.7022 8.2752 11.7386C8.19159 11.7749 8.11598 11.8275 8.05266 11.8931C7.98933 11.9586 7.93957 12.0361 7.90617 12.121C7.87278 12.2058 7.85638 12.2964 7.858 12.3876C7.85962 12.4788 7.87919 12.5687 7.91558 12.6523C7.95197 12.736 8.00445 12.8116 8.07007 12.8749C8.13568 12.9382 8.21316 12.9881 8.29802 13.0215C8.33125 13.0344 11.682 14.3904 12.0512 17.6212C12.0548 17.6525 12.0606 17.6833 12.0683 17.7136C12.0524 18.4767 12.092 19.2902 12.2016 20.1545C12.2228 20.3215 12.3041 20.4752 12.4304 20.5866Z" fill="black"/>
</svg>
