<svg width="24" height="24" viewBox="0 0 24 24" fill="none" xmlns="http://www.w3.org/2000/svg">
<path d="M12 0C18.6274 0 24 5.37258 24 12C24 18.6274 18.6274 24 12 24C5.37258 24 0 18.6274 0 12C0 5.37258 5.37258 0 12 0ZM18.1201 4.70117C17.0035 4.84103 15.9211 5.17984 14.9238 5.70117C13.8715 6.21939 13.063 7.12857 12.6719 8.23438C12.4309 8.95074 12.4589 9.73026 12.75 10.4277C12.9149 10.8228 13.1598 11.1741 13.4629 11.4668C13.0449 12.2009 12.6354 13.1333 12.3672 14.2686C12.0995 13.8554 11.7907 13.4998 11.4756 13.1963C11.6984 12.7833 11.8269 12.3217 11.8467 11.8457C11.878 11.0904 11.6336 10.3493 11.1592 9.76074C10.4097 8.85866 9.33651 8.28597 8.16992 8.16504C7.05439 8.0203 5.92199 8.07601 4.82617 8.33008C4.718 8.363 4.62114 8.42674 4.54883 8.51367C4.47654 8.60058 4.43163 8.70699 4.41895 8.81934C4.36976 9.94387 4.5214 11.0685 4.86719 12.1396C5.19927 13.2643 5.95863 14.2142 6.98242 14.7861C7.43956 15.0294 7.949 15.1596 8.4668 15.165C8.9574 15.1513 9.43855 15.0273 9.875 14.8027C10.2094 14.6307 10.5105 14.4021 10.7666 14.1289C11.3678 14.7383 11.9166 15.5784 12.043 16.6846C12.046 16.7106 12.0502 16.7366 12.0566 16.7617C12.0434 17.3975 12.0766 18.0758 12.168 18.7959C12.1857 18.9349 12.2534 19.0625 12.3584 19.1553C12.4635 19.2481 12.599 19.2995 12.7393 19.2998C12.7646 19.2999 12.7902 19.299 12.8154 19.2959C12.8906 19.2863 12.9635 19.2612 13.0293 19.2236C13.0949 19.186 13.1529 19.136 13.1992 19.0762C13.2454 19.0164 13.2789 18.9479 13.2988 18.875C13.3187 18.8019 13.3239 18.7255 13.3145 18.6504C12.9346 15.6586 13.6561 13.4928 14.4189 12.1172C14.9245 12.3882 15.4871 12.5374 16.0625 12.5479C16.493 12.5449 16.9185 12.4505 17.3096 12.2705C17.7006 12.0905 18.0488 11.8288 18.3311 11.5039C19.0944 10.6131 19.478 9.45856 19.3994 8.28809C19.3537 7.16297 19.106 6.05537 18.6689 5.01758C18.6189 4.91658 18.5402 4.83262 18.4424 4.77637C18.3447 4.72015 18.2325 4.69381 18.1201 4.70117ZM9.11621 11.7344C9.1922 11.7331 9.26816 11.7466 9.33887 11.7744C9.4189 11.8062 10.4815 12.2387 11.4756 13.1963C11.3448 13.4386 11.1822 13.6648 10.9893 13.8672C10.9199 13.9587 10.8448 14.0455 10.7666 14.1289C9.90774 13.2583 8.93838 12.8608 8.91504 12.8516C8.84432 12.8237 8.77929 12.7823 8.72461 12.7295C8.66994 12.6767 8.62603 12.6136 8.5957 12.5439C8.5654 12.4743 8.54922 12.3992 8.54785 12.3232C8.54651 12.2472 8.56006 12.1713 8.58789 12.1006C8.61567 12.03 8.65736 11.9656 8.70996 11.9111C8.76266 11.8565 8.82595 11.8125 8.89551 11.7822C8.96509 11.752 9.04034 11.7358 9.11621 11.7344ZM15.4736 9.29395C15.6237 9.30778 15.7627 9.37939 15.8604 9.49414C15.9581 9.609 16.0066 9.75776 15.9961 9.9082C15.9856 10.0587 15.9164 10.1996 15.8037 10.2998C15.7407 10.354 15.0649 10.9524 14.4189 12.1172C14.3636 12.0875 14.3078 12.058 14.2539 12.0254C13.9598 11.8812 13.6948 11.6908 13.4629 11.4668C14.2091 10.1561 14.9861 9.47944 15.0566 9.4209C15.1736 9.32572 15.3235 9.28024 15.4736 9.29395Z" fill="black"/>
</svg>
