<svg width="24" height="24" viewBox="0 0 24 24" fill="none" xmlns="http://www.w3.org/2000/svg">
<path opacity="0.2" fill-rule="evenodd" clip-rule="evenodd" d="M12 2.5C17.238 2.5 21.5 6.762 21.5 12C21.5 17.238 17.238 21.5 12 21.5C6.761 21.5 2.5 17.238 2.5 12C2.5 6.762 6.761 2.5 12 2.5Z" fill="black"/>
<path fill-rule="evenodd" clip-rule="evenodd" d="M9.48199 12.5288L12.873 15.9058C13.019 16.0518 13.211 16.1248 13.402 16.1248C13.594 16.1248 13.787 16.0508 13.933 15.9038C14.226 15.6108 14.225 15.1348 13.931 14.8428L11.074 11.9978L13.931 9.15185C14.225 8.85985 14.226 8.38485 13.933 8.09185C13.641 7.79885 13.166 7.79685 12.873 8.08985L9.48199 11.4668C9.34099 11.6068 9.26099 11.7988 9.26099 11.9978C9.26099 12.1968 9.34099 12.3878 9.48199 12.5288Z" fill="black"/>
</svg>
