<svg width="24" height="24" viewBox="0 0 24 24" fill="none" xmlns="http://www.w3.org/2000/svg">
<path d="M12 0C18.6274 0 24 5.37258 24 12C24 18.6274 18.6274 24 12 24C5.37258 24 0 18.6274 0 12C0 5.37258 5.37258 0 12 0ZM12.5127 4.40625C12.1847 4.19025 11.7684 4.18965 11.4404 4.39844L4.88867 8.62988C4.60067 8.81468 4.43262 9.1181 4.43262 9.4541V9.91797C4.43266 10.462 4.87302 10.9014 5.41699 10.9014H5.7207C5.85309 10.9014 5.96077 11.0092 5.96094 11.1416V16.1748C5.96089 16.3072 5.85316 16.415 5.7207 16.415H5.52051C5.1446 16.4151 4.81658 16.6858 4.72852 17.0537L4.4248 18.4619C4.3688 18.7018 4.42496 18.9496 4.58496 19.1416C4.73696 19.3336 4.96898 19.4375 5.20898 19.4375H18.7441C18.9921 19.4375 19.2162 19.3336 19.3682 19.1416C19.5282 18.9496 19.5843 18.7018 19.5283 18.4619L19.2246 17.0537C19.1365 16.6858 18.8085 16.4151 18.4326 16.415H18.2324C18.1 16.415 17.9922 16.3072 17.9922 16.1748V11.1416C17.9924 11.0092 18.1 10.9014 18.2324 10.9014H18.5361C19.0801 10.9014 19.5205 10.462 19.5205 9.91797V9.4541C19.5205 9.1181 19.3523 8.80588 19.0723 8.62988L12.5127 4.40625ZM9.32812 10.9023C9.46063 10.9023 9.56828 11.0101 9.56836 11.1426V16.1748C9.56831 16.3072 9.46065 16.415 9.32812 16.415H7.40039C7.26796 16.4149 7.1602 16.3072 7.16016 16.1748V11.1426C7.16023 11.0101 7.26798 10.9024 7.40039 10.9023H9.32812ZM12.9443 10.9023C13.0768 10.9023 13.1845 11.0101 13.1846 11.1426V16.1748C13.1845 16.3072 13.0769 16.415 12.9443 16.415H11.0088C10.8763 16.415 10.7686 16.3072 10.7686 16.1748V11.1426C10.7686 11.0101 10.8763 10.9023 11.0088 10.9023H12.9443ZM16.5527 10.9023C16.6852 10.9024 16.7929 11.0101 16.793 11.1426V16.1748C16.7929 16.3072 16.6852 16.4149 16.5527 16.415H14.625C14.4925 16.415 14.3848 16.3072 14.3848 16.1748V11.1426C14.3848 11.0101 14.4925 10.9023 14.625 10.9023H16.5527ZM11.9766 7.4541C12.3126 7.4541 12.5762 7.7179 12.5762 8.0459V8.05371C12.5762 8.38971 12.3126 8.6543 11.9766 8.6543C11.6486 8.6543 11.377 8.38971 11.377 8.05371C11.377 7.72579 11.6486 7.4541 11.9766 7.4541Z" fill="black"/>
</svg>
