<svg width="24" height="24" viewBox="0 0 24 24" fill="none" xmlns="http://www.w3.org/2000/svg">
<path fill-rule="evenodd" clip-rule="evenodd" d="M14.8615 17.0097C14.8615 17.1686 14.9904 17.2977 15.1495 17.2977H17.4631C17.6222 17.2977 17.7511 17.1686 17.7511 17.0097V10.9713C17.7511 10.8122 17.6222 10.6833 17.4631 10.6833H15.1495C14.9904 10.6833 14.8615 10.8122 14.8615 10.9713V17.0097ZM10.5223 17.0097C10.5223 17.1686 10.6512 17.2977 10.8103 17.2977H13.1335C13.2926 17.2977 13.4215 17.1686 13.4215 17.0097V10.9713C13.4215 10.8122 13.2926 10.6833 13.1335 10.6833H10.8103C10.6512 10.6833 10.5223 10.8122 10.5223 10.9713V17.0097ZM6.19271 17.0097C6.19271 17.1686 6.32165 17.2977 6.48071 17.2977H8.79431C8.95337 17.2977 9.08231 17.1686 9.08231 17.0097V10.9713C9.08231 10.8122 8.95337 10.6833 8.79431 10.6833H6.48071C6.32165 10.6833 6.19271 10.8122 6.19271 10.9713V17.0097ZM11.9719 6.54465C12.3751 6.54465 12.6919 6.86145 12.6919 7.25505V7.26465C12.6919 7.66785 12.3751 7.98465 11.9719 7.98465C11.5783 7.98465 11.2519 7.66785 11.2519 7.26465C11.2519 6.87105 11.5783 6.54465 11.9719 6.54465ZM21.0343 19.7543L20.6695 18.0647C20.5639 17.6231 20.1703 17.2977 19.7191 17.2977H19.4791C19.32 17.2977 19.1911 17.1686 19.1911 17.0097V10.9703C19.1911 10.8112 19.32 10.6822 19.4791 10.6822H19.8439C20.4967 10.6822 21.0247 10.1543 21.0247 9.50145V8.94465C21.0247 8.54145 20.8231 8.16705 20.4871 7.95585L12.6151 2.88705C12.2215 2.62785 11.7223 2.62785 11.3287 2.87841L3.46631 7.95585C3.12071 8.17761 2.91911 8.54145 2.91911 8.94465V9.50145C2.91911 10.1543 3.44711 10.6822 4.09991 10.6822H4.46471C4.62377 10.6822 4.75271 10.8112 4.75271 10.9703V17.0097C4.75271 17.1686 4.62377 17.2977 4.46471 17.2977H4.22471C3.77351 17.2977 3.37991 17.6231 3.27431 18.0647L2.90951 19.7543C2.84231 20.0422 2.90951 20.3399 3.10151 20.5703C3.28391 20.8007 3.56231 20.9254 3.85031 20.9254H20.0935C20.3911 20.9254 20.6599 20.8007 20.8423 20.5703C21.0343 20.3399 21.1015 20.0422 21.0343 19.7543Z" fill="black"/>
</svg>
