<svg width="24" height="24" viewBox="0 0 24 24" fill="none" xmlns="http://www.w3.org/2000/svg">
<path d="M11.8477 17.7529C11.8496 17.7535 11.8527 17.7547 11.8564 17.7558C11.8613 17.7573 11.8683 17.7587 11.876 17.7607C11.8677 17.7586 11.8605 17.7574 11.8555 17.7558C11.8518 17.7547 11.8485 17.7535 11.8467 17.7529L11.8447 17.7519H11.8457L11.8477 17.7529ZM11.75 18.2842L11.2979 18.2412C9.5657 18.0762 7.96224 17.3242 6.71973 16.0762C5.31036 14.6602 4.53828 12.7826 4.54297 10.7861C4.5434 10.6485 4.65511 10.5371 4.79297 10.5371H4.79395L4.84375 10.542C4.95747 10.5655 5.04326 10.6671 5.04297 10.7881C5.0387 12.6483 5.75976 14.4036 7.07324 15.7226C8.3833 17.0391 10.1283 17.7671 11.9844 17.7764C11.9911 17.7766 11.9979 17.7783 12.0049 17.7783H12.0068C15.8467 17.7663 18.9656 14.6319 18.957 10.7881C18.9567 10.6665 19.0423 10.5653 19.1562 10.542L19.2061 10.5371H19.207C19.3455 10.5371 19.4566 10.648 19.457 10.7861C19.4664 14.669 16.4943 17.8756 12.7021 18.2402L12.25 18.2842V20.875C12.25 21.0133 12.1384 21.125 12 21.125C11.8621 21.125 11.75 21.0128 11.75 20.875V18.2842Z" fill="black" stroke="black"/>
<path d="M11.9993 2.875C14.0171 2.87509 15.6594 4.51745 15.6594 6.53418V10.7578C15.6638 12.7775 14.0221 14.4261 12.0022 14.4316H11.9993C11.019 14.4299 10.0998 14.0474 9.40845 13.3525C8.71689 12.6575 8.33833 11.7374 8.34009 10.7568V6.53418C8.34009 4.51732 9.9824 2.875 11.9993 2.875Z" fill="black" stroke="black"/>
</svg>
