<svg width="24" height="24" viewBox="0 0 24 24" fill="none" xmlns="http://www.w3.org/2000/svg">
<path d="M11.5511 17.3297H11.5472C11.5378 17.3285 11.5292 17.3253 11.5209 17.3238C11.5302 17.3256 11.5403 17.3283 11.5511 17.3297ZM11.4623 17.3102C11.4641 17.3108 11.4675 17.312 11.4711 17.3131C11.4753 17.3144 11.4811 17.3152 11.4877 17.317C11.4806 17.3151 11.4745 17.3144 11.4701 17.3131L11.4623 17.3102ZM11.3724 17.8014L10.9545 17.7613C9.35553 17.609 7.87579 16.9144 6.72888 15.7623H6.72791C5.42736 14.4554 4.71577 12.7221 4.72009 10.8795C4.72049 10.7524 4.8233 10.65 4.95056 10.65H4.95154L4.99744 10.6549C5.1023 10.6766 5.1813 10.7698 5.18103 10.8814C5.17713 12.5986 5.84346 14.2185 7.05603 15.4361C8.26543 16.6515 9.87577 17.3232 11.5892 17.3316C11.5954 17.3319 11.6015 17.3336 11.6078 17.3336H11.6088C15.1533 17.3226 18.0326 14.4296 18.0248 10.8814C18.0245 10.7695 18.1035 10.6767 18.2084 10.6549L18.2552 10.65H18.2562C18.3838 10.6502 18.4863 10.7522 18.4867 10.8795C18.4953 14.4636 15.7518 17.4238 12.2513 17.7603L11.8344 17.8004V20.192C11.8344 20.3196 11.7307 20.4234 11.6029 20.4234C11.4758 20.4233 11.3724 20.3192 11.3724 20.192V17.8014Z" fill="black" stroke="black" stroke-width="0.923077"/>
<path opacity="0.2" d="M11.6021 3.5773C13.4647 3.5773 14.9808 5.09271 14.981 6.95425V10.8537C14.985 12.718 13.4696 14.2403 11.605 14.2453H11.6021C10.6974 14.2436 9.84962 13.8895 9.21143 13.2482C8.57311 12.6066 8.22351 11.7577 8.2251 10.8527V6.95425C8.22521 5.09273 9.74052 3.57744 11.6021 3.5773Z" fill="black" stroke="black" stroke-width="0.923077"/>
</svg>
