<svg width="24" height="24" viewBox="0 0 24 24" fill="none" xmlns="http://www.w3.org/2000/svg">
<path d="M11.995 17.2988C12.0407 17.2988 12.0852 17.3118 12.1229 17.3369L12.1581 17.3662C12.2014 17.4097 12.2255 17.4684 12.2255 17.5293V20.1592C12.2255 20.1743 12.2244 20.1894 12.2216 20.2041L12.2079 20.248C12.1965 20.2759 12.1796 20.3016 12.1581 20.3232C12.1366 20.3447 12.1109 20.3614 12.0829 20.373C12.0552 20.3845 12.0254 20.3906 11.995 20.3906C11.949 20.3906 11.9047 20.3767 11.8671 20.3516L11.8319 20.3232C11.7886 20.2799 11.7646 20.2214 11.7645 20.1602V17.5293C11.7645 17.4682 11.7886 17.4096 11.8319 17.3662C11.8754 17.3229 11.9339 17.2988 11.995 17.2988Z" fill="black" stroke="black" stroke-width="0.923077"/>
<path d="M5.34143 10.6177C5.37138 10.6177 5.40121 10.6235 5.42932 10.6353C5.45692 10.6468 5.48217 10.6637 5.50354 10.6851C5.51431 10.6959 5.52448 10.7076 5.53284 10.7202L5.55432 10.7603C5.56578 10.7882 5.57094 10.8181 5.57092 10.8481V10.8501C5.57096 11.6933 5.73753 12.5281 6.06018 13.3071C6.3829 14.0863 6.85547 14.7948 7.45178 15.3911C8.04811 15.9875 8.75664 16.46 9.53577 16.7827C10.3148 17.1054 11.1496 17.2719 11.9928 17.272C12.8362 17.272 13.6717 17.1055 14.4508 16.7827C15.2297 16.46 15.9376 15.9873 16.5338 15.3911C17.1301 14.7948 17.6037 14.0863 17.9264 13.3071C18.249 12.5282 18.4146 11.6933 18.4147 10.8501V10.8491C18.4147 10.8191 18.4208 10.7892 18.4323 10.7612C18.4437 10.7334 18.4603 10.7069 18.4821 10.6851C18.5036 10.6636 18.5297 10.6477 18.5573 10.6362C18.5852 10.6247 18.6148 10.6178 18.6451 10.6177C18.6753 10.6176 18.7052 10.6238 18.733 10.6353L18.734 10.6362C18.7615 10.6476 18.787 10.6639 18.8082 10.6851V10.686C18.8292 10.7069 18.8464 10.7321 18.858 10.7603C18.8695 10.788 18.8756 10.8179 18.8756 10.8481L18.8678 11.1899C18.7851 12.8941 18.0731 14.5119 16.8639 15.7271C15.5743 17.023 13.8239 17.7546 11.9957 17.7622C11.0901 17.7602 10.194 17.5802 9.35803 17.2319C8.52145 16.8834 7.76118 16.3742 7.1217 15.7319C6.48225 15.0897 5.97543 14.3278 5.63049 13.4897C5.32874 12.7566 5.15586 11.9773 5.11877 11.187L5.11194 10.8472C5.11198 10.8171 5.118 10.7871 5.12952 10.7593C5.14112 10.7314 5.15788 10.7055 5.17932 10.6841C5.20077 10.6628 5.22595 10.6457 5.25354 10.6343H5.25452C5.28199 10.623 5.31151 10.6176 5.34143 10.6177Z" fill="black" stroke="black" stroke-width="0.923077"/>
<path d="M11.996 3.77539C11.1618 3.77664 10.362 4.10832 9.77234 4.69824C9.1825 5.28825 8.85133 6.08862 8.85046 6.92285V10.8115C8.84271 11.2297 8.91842 11.6456 9.07312 12.0342C9.2278 12.4228 9.45799 12.7768 9.75085 13.0752C10.0438 13.3737 10.3936 13.6106 10.7792 13.7725C11.1648 13.9343 11.5796 14.0176 11.9979 14.0176C12.4161 14.0175 12.8302 13.9342 13.2157 13.7725C13.6013 13.6106 13.951 13.3737 14.244 13.0752C14.537 12.7767 14.7671 12.4227 14.9218 12.0342C15.0764 11.6456 15.1522 11.2298 15.1444 10.8115V6.92285L15.1405 6.7666C15.1012 5.98901 14.7748 5.25141 14.2216 4.69824C13.6317 4.1084 12.8321 3.77637 11.9979 3.77539H11.996ZM8.38953 6.91602C8.38234 6.43766 8.47028 5.9626 8.64832 5.51855C8.82644 5.0744 9.09178 4.67003 9.42761 4.3291C9.76337 3.98829 10.1631 3.71698 10.6044 3.53223C11.0457 3.34749 11.5196 3.25299 11.9979 3.25293C12.4765 3.25293 12.951 3.34743 13.3925 3.53223C13.8337 3.717 14.2335 3.98829 14.5692 4.3291C14.9051 4.67001 15.1704 5.07443 15.3485 5.51855C15.5266 5.96256 15.6145 6.43762 15.6073 6.91602V10.8213C15.6083 11.2959 15.5156 11.7661 15.3348 12.2051C15.1541 12.644 14.8886 13.0435 14.5536 13.3799C14.2187 13.716 13.8207 13.9824 13.3827 14.165C12.9444 14.3476 12.4745 14.4424 11.9999 14.4434H11.9979C11.523 14.4425 11.0526 14.3477 10.6141 14.165C10.176 13.9826 9.77825 13.7153 9.44324 13.3789C9.10819 13.0424 8.84272 12.6432 8.66199 12.2041C8.48128 11.7649 8.38835 11.2943 8.38953 10.8193V6.91602Z" fill="black" stroke="black" stroke-width="0.923077"/>
</svg>
