<svg width="24" height="24" viewBox="0 0 24 24" fill="none" xmlns="http://www.w3.org/2000/svg">
<path fill-rule="evenodd" clip-rule="evenodd" d="M7.01009 7.4495C5.79765 7.4495 4.81491 8.43256 4.81491 9.64557V14.3294C4.81491 15.542 5.79737 16.5245 7.01009 16.5245H16.9865C18.1996 16.5245 19.1826 15.5417 19.1826 14.3294V9.64557C19.1826 8.43285 18.1993 7.4495 16.9865 7.4495H7.01009ZM3.4303 9.64557C3.4303 7.66842 5.03238 6.06488 7.01009 6.06488H16.9865C18.964 6.06488 20.5672 7.66815 20.5672 9.64557V14.3294C20.5672 16.3071 18.9637 17.9091 16.9865 17.9091H7.01009C5.03267 17.9091 3.4303 16.3068 3.4303 14.3294V9.64557Z" fill="black"/>
<path fill-rule="evenodd" clip-rule="evenodd" d="M6.88335 16.5613C7.2657 16.5613 7.57566 16.8712 7.57566 17.2536V18.511C7.57566 18.9301 7.73321 19.1815 7.96647 19.3511C8.22825 19.5415 8.64494 19.6671 9.18704 19.6671H14.8129C15.3604 19.6671 15.7763 19.5412 16.0362 19.3516C16.2672 19.1831 16.4244 18.9323 16.4244 18.511V17.2536C16.4244 16.8712 16.7343 16.5613 17.1167 16.5613C17.499 16.5613 17.809 16.8712 17.809 17.2536V18.511C17.809 19.3588 17.4531 20.032 16.8519 20.4704C16.2794 20.8878 15.5436 21.0517 14.8129 21.0517H9.18704C8.46009 21.0517 7.72494 20.8875 7.15213 20.471C6.55081 20.0337 6.19104 19.3609 6.19104 18.511V17.2536C6.19104 16.8712 6.50099 16.5613 6.88335 16.5613Z" fill="black"/>
<path fill-rule="evenodd" clip-rule="evenodd" d="M7.96647 4.63202C7.73321 4.80165 7.57566 5.05305 7.57566 5.47218V6.72956C7.57566 7.11191 7.2657 7.42186 6.88335 7.42186C6.50099 7.42186 6.19104 7.11191 6.19104 6.72956V5.47218C6.19104 4.62224 6.55081 3.94947 7.15213 3.51219C7.72494 3.09565 8.4601 2.93152 9.18704 2.93152H14.8129C15.5436 2.93152 16.2794 3.09529 16.8519 3.51272C17.4531 3.95111 17.809 4.62441 17.809 5.47218V6.72956C17.809 7.11191 17.499 7.42186 17.1167 7.42186C16.7343 7.42186 16.4244 7.11191 16.4244 6.72956V5.47218C16.4244 5.05088 16.2672 4.80001 16.0362 4.63149C15.7763 4.442 15.3604 4.31613 14.8129 4.31613H9.18704C8.64494 4.31613 8.22825 4.44165 7.96647 4.63202Z" fill="black"/>
</svg>
