<svg width="24" height="24" viewBox="0 0 24 24" fill="none" xmlns="http://www.w3.org/2000/svg">
<path d="M12.0115 21.6958C10.7551 21.6851 9.5144 21.4153 8.36703 20.9032C7.21967 20.3912 6.19033 19.6478 5.34336 18.7198C4.37445 17.706 3.64676 16.4867 3.21459 15.1526C2.78242 13.8185 2.65689 12.4042 2.84733 11.0148C3.10799 8.72899 4.22714 6.62747 5.97834 5.13541C7.72954 3.64334 9.98203 2.8721 12.2803 2.9777H12.31C13.6343 2.92124 14.9546 3.15882 16.1761 3.67338C17.3976 4.18794 18.49 4.96668 19.3747 5.95367C21.1401 8.07047 22.0271 11.5102 20.3078 13.9908C19.753 14.7285 19.0456 15.3377 18.2337 15.7769C17.4219 16.2162 16.5248 16.475 15.6038 16.5358C15.406 16.537 15.2109 16.5814 15.0321 16.666C14.8534 16.7506 14.6952 16.8732 14.5689 17.0254C14.4928 17.2425 14.4659 17.4738 14.4901 17.7026C14.5144 17.9314 14.5892 18.1519 14.7091 18.3483C14.8871 18.6925 14.9777 19.0753 14.973 19.4628C14.9683 19.8503 14.8684 20.2307 14.6822 20.5707C14.4606 20.9052 14.1606 21.1806 13.8082 21.3725C13.4558 21.5645 13.0617 21.6672 12.6604 21.6718C12.4454 21.6878 12.2291 21.6958 12.0115 21.6958ZM12.2822 4.41576C10.3337 4.32355 8.42295 4.97485 6.93641 6.2379C5.44986 7.50097 4.49852 9.28151 4.27485 11.2193C4.11513 12.395 4.22295 13.5916 4.59032 14.7198C4.95768 15.848 5.57511 16.8786 6.39647 17.7348C7.16911 18.5876 8.12427 19.2549 9.19074 19.687C10.2573 20.1192 11.4075 20.3051 12.5559 20.2308C12.7257 20.2378 12.8948 20.205 13.0498 20.1352C13.2048 20.0654 13.3414 19.9604 13.4486 19.8285C13.5114 19.6856 13.5395 19.5298 13.5309 19.3739C13.5221 19.2179 13.4769 19.0662 13.3987 18.9309C13.1715 18.5334 13.0457 18.0859 13.0323 17.6283C13.0189 17.1706 13.1184 16.7165 13.3219 16.3063C13.5501 15.9464 13.8632 15.6481 14.2339 15.4379C14.6046 15.2275 15.0213 15.1117 15.4473 15.1006C16.1615 15.0524 16.8576 14.8554 17.4911 14.5222C18.1248 14.1891 18.6816 13.7272 19.126 13.1661C20.422 11.296 19.6521 8.52743 18.2707 6.87143C17.5124 6.05648 16.5871 5.41479 15.5581 4.99015C14.5291 4.56553 13.4205 4.36797 12.3081 4.41096H12.2822V4.41576Z" fill="black"/>
<path d="M9.31051 8.89911C9.12699 8.89892 8.94763 8.84433 8.79511 8.74224C8.6426 8.64017 8.52378 8.49518 8.45363 8.32559C8.38349 8.156 8.36523 7.96944 8.40107 7.78945C8.43693 7.60947 8.52531 7.44415 8.65508 7.31438C8.78485 7.18461 8.95017 7.09623 9.13015 7.06037C9.31014 7.02453 9.4967 7.04285 9.66629 7.11299C9.83583 7.18314 9.98089 7.30197 10.0829 7.45447C10.185 7.60699 10.2396 7.78634 10.2398 7.96987C10.2395 8.21625 10.1416 8.45242 9.96735 8.62664C9.79311 8.80086 9.55689 8.89885 9.31051 8.89911Z" fill="black"/>
<path d="M13.7421 7.85107C14.2554 7.85107 14.6714 7.43501 14.6714 6.92179C14.6714 6.40856 14.2554 5.99251 13.7421 5.99251C13.2289 5.99251 12.8129 6.40856 12.8129 6.92179C12.8129 7.43501 13.2289 7.85107 13.7421 7.85107Z" fill="black"/>
<path d="M17.1236 11.3329C17.6369 11.3329 18.0529 10.9169 18.0529 10.4036C18.0529 9.89041 17.6369 9.47438 17.1236 9.47438C16.6104 9.47438 16.1943 9.89041 16.1943 10.4036C16.1943 10.9169 16.6104 11.3329 17.1236 11.3329Z" fill="black"/>
<path d="M6.8665 12.8386C6.68266 12.8387 6.50288 12.7844 6.34994 12.6824C6.19699 12.5804 6.07777 12.4354 6.00728 12.2655C5.9368 12.0957 5.91827 11.9089 5.95402 11.7286C5.98976 11.5482 6.07816 11.3825 6.20808 11.2525C6.338 11.1225 6.50358 11.0339 6.68386 10.9979C6.86415 10.9619 7.05107 10.9804 7.22094 11.0507C7.39079 11.1209 7.53597 11.2401 7.63812 11.3929C7.74028 11.5457 7.7948 11.7254 7.7948 11.9093C7.7943 12.1554 7.69636 12.3914 7.52239 12.5654C7.34844 12.7396 7.11264 12.8378 6.8665 12.8386Z" fill="black"/>
</svg>
