<svg width="24" height="24" viewBox="0 0 24 24" fill="none" xmlns="http://www.w3.org/2000/svg">
<path d="M12 0C18.6274 0 24 5.37258 24 12C24 18.6274 18.6274 24 12 24C5.37258 24 0 18.6274 0 12C0 5.37258 5.37258 0 12 0ZM13.6201 5.12793C13.3618 4.94034 13.0022 4.99574 12.8145 5.25391C12.7535 5.33785 11.4991 7.10264 12.4424 9.37305C12.2515 9.51559 12.0562 9.67003 11.8584 9.83789C11.6122 10.0379 11.5814 10.408 11.7891 10.6465C11.812 10.6695 11.8276 10.6927 11.8506 10.708C12.066 10.8924 12.3815 10.9071 12.6045 10.7148C12.7431 10.5976 12.8779 10.4901 13.0078 10.3906C13.1193 10.5155 13.2777 10.5819 13.4375 10.582C13.5483 10.582 13.6605 10.5498 13.7598 10.4844C13.9995 10.3226 14.077 10.0137 13.957 9.76074C14.6934 9.3534 15.1617 9.30151 15.2578 9.39258L15.3115 9.56934C15.3192 9.59236 15.3193 9.60768 15.3193 9.62305C15.3116 10.1847 14.75 11.5925 13.1963 13.2539C12.3657 14.146 11.4659 14.861 10.666 15.2764C10.3202 15.4608 10.0586 15.5455 9.87402 15.584C9.70492 15.6147 9.60452 15.6073 9.54297 15.5996C9.51265 15.592 9.49706 15.5847 9.48926 15.5771C9.36618 15.4618 9.42706 14.6302 10.3193 13.2764C10.4808 13.0302 10.4351 12.7072 10.2197 12.5303C10.2043 12.5073 10.1812 12.4919 10.1582 12.4766C9.88898 12.2997 9.53531 12.3695 9.3584 12.6387C8.22011 14.3692 7.98124 15.7459 8.7041 16.4229C8.78872 16.4998 8.89657 16.577 9.02734 16.6309C9.04269 16.6462 9.06588 16.6535 9.08887 16.6611C9.24269 16.7227 9.42736 16.7617 9.65039 16.7617C9.94267 16.7617 10.2969 16.6925 10.7354 16.5156H10.7432C10.8892 16.4541 11.0427 16.3843 11.2041 16.2998C11.304 16.246 11.4119 16.1922 11.5195 16.123C12.3426 15.6461 13.2276 14.9073 14.043 14.0381C14.7967 13.2304 15.4815 12.3075 15.9199 11.4307C16.0661 11.1691 16.1733 10.9071 16.2656 10.6533C16.4136 10.2295 16.4855 9.82345 16.46 9.46582V9.4668C16.4856 9.82443 16.4136 10.2305 16.2656 10.6543C16.1733 10.9081 16.066 11.1701 15.9199 11.4316C15.4815 12.3085 14.7967 13.2314 14.043 14.0391C13.2276 14.9083 12.3426 15.6471 11.5195 16.124C11.4346 16.1786 11.3497 16.2236 11.2686 16.2666C11.247 16.278 11.225 16.2896 11.2041 16.3008C11.0427 16.3853 10.8892 16.4551 10.7432 16.5166H10.7354C10.2969 16.6935 9.94271 16.7627 9.65039 16.7627C9.42734 16.7627 9.2427 16.7236 9.08887 16.6621C9.12729 16.6852 9.16568 16.7013 9.2041 16.709L17.7197 18.9473C17.812 18.978 17.9048 18.9854 17.9971 18.9854C18.2969 18.9852 18.5894 18.8626 18.8047 18.6396C19.0816 18.3473 19.1817 17.9237 19.0586 17.5391L16.4424 9.31641V9.2998L16.3271 8.94629C16.3041 8.88497 16.2815 8.8302 16.2432 8.78418C16.197 8.69965 16.1276 8.62288 16.0508 8.55371C15.4932 8.03365 14.5654 8.10779 13.4346 8.72656C12.901 7.16494 13.7004 5.99873 13.7471 5.93262C13.934 5.67492 13.8763 5.31562 13.6201 5.12793ZM6.86133 15.2119C6.5421 15.2119 6.29199 15.4706 6.29199 15.7891C6.29211 16.1074 6.55955 16.3662 6.87793 16.3662C7.19632 16.3662 7.45496 16.1074 7.45508 15.7891C7.45508 15.4706 7.19639 15.2119 6.87793 15.2119H6.86133ZM7.33984 12.6709C7.26506 12.6726 5.59995 12.7255 4.34082 14.3809C4.14774 14.6339 4.19733 14.9964 4.45117 15.1895C4.55577 15.2686 4.67829 15.3076 4.7998 15.3076C4.97425 15.3075 5.14602 15.2292 5.25977 15.0801C6.16823 13.8855 7.31411 13.8265 7.36719 13.8242C7.68327 13.8157 7.93389 13.5532 7.92773 13.2363C7.92219 12.918 7.6436 12.6624 7.33984 12.6709ZM12.4463 11.9238C12.3332 11.8069 9.63467 9.08024 5.47852 10.2656C5.17261 10.3526 4.99536 10.6718 5.08203 10.9785C5.16895 11.2839 5.48801 11.4634 5.79492 11.375C9.26492 10.3888 11.5159 12.6237 11.6182 12.7275C11.7312 12.8436 11.8823 12.9023 12.0322 12.9023C12.1767 12.9023 12.3212 12.8476 12.4326 12.7393C12.6617 12.5169 12.6677 12.1522 12.4463 11.9238ZM13.4346 8.72656C13.5389 9.03202 13.6939 9.35318 13.916 9.68359C13.9326 9.70818 13.9447 9.73474 13.957 9.76074C13.6773 9.91549 13.3591 10.1217 13.0078 10.3906C12.9901 10.3708 12.9742 10.349 12.959 10.3262C12.7403 10.001 12.5709 9.68239 12.4424 9.37305C12.7867 9.1159 13.1183 8.8996 13.4346 8.72656ZM4.68945 7.22949C4.37099 7.22949 4.12109 7.48818 4.12109 7.80664C4.12132 8.12491 4.38871 8.38281 4.70703 8.38281C5.02533 8.38279 5.28396 8.1249 5.28418 7.80664C5.28418 7.48819 5.02547 7.22952 4.70703 7.22949H4.68945ZM8.92285 6.17969C8.41446 6.17969 8.00012 6.59341 8 7.10254C8 7.61177 8.41439 8.02539 8.92285 8.02539C9.43203 8.02533 9.8457 7.61173 9.8457 7.10254C9.84558 6.59345 9.43196 6.17975 8.92285 6.17969Z" fill="black"/>
</svg>
