<svg width="24" height="24" viewBox="0 0 24 24" fill="none" xmlns="http://www.w3.org/2000/svg">
<path fill-rule="evenodd" clip-rule="evenodd" d="M17.3315 8.75973L17.193 8.33511C17.2567 8.46988 17.3065 8.61111 17.3315 8.75973Z" fill="black"/>
<path fill-rule="evenodd" clip-rule="evenodd" d="M5.85353 15.8543H5.83322C5.45015 15.8543 5.15015 16.1645 5.15015 16.5466C5.15015 16.9288 5.47138 17.2389 5.85353 17.2389C6.23568 17.2389 6.54584 16.9288 6.54584 16.5466C6.54584 16.1645 6.23568 15.8543 5.85353 15.8543Z" fill="black"/>
<path fill-rule="evenodd" clip-rule="evenodd" d="M8.30728 5.01562C7.69712 5.01562 7.19958 5.51224 7.19958 6.12332C7.19958 6.73439 7.69712 7.23101 8.30728 7.23101C8.91835 7.23101 9.41501 6.73439 9.41501 6.12332C9.41501 5.51224 8.91835 5.01562 8.30728 5.01562Z" fill="black"/>
<path fill-rule="evenodd" clip-rule="evenodd" d="M3.35922 15.9689C3.21338 15.9689 3.06661 15.9227 2.94107 15.8276C2.63645 15.5959 2.57738 15.1612 2.80907 14.8575C4.32199 12.8682 6.32322 12.8064 6.40815 12.8046C6.77276 12.7944 7.10692 13.1018 7.11338 13.4839C7.12076 13.8642 6.81984 14.179 6.44045 14.1892C6.37676 14.1919 5.00138 14.2621 3.91122 15.6956C3.77461 15.8747 3.56876 15.9689 3.35922 15.9689Z" fill="black"/>
<path fill-rule="evenodd" clip-rule="evenodd" d="M12.0383 13.0824C11.8583 13.0824 11.6773 13.0122 11.5416 12.8729C11.4189 12.7482 8.71792 10.0667 4.55392 11.2501C4.18561 11.3562 3.80253 11.1412 3.69822 10.7747C3.59392 10.4064 3.80715 10.0233 4.17453 9.919C9.16192 8.49653 12.4001 11.7679 12.5358 11.9082C12.8016 12.1824 12.7943 12.6209 12.5192 12.8876C12.3853 13.0178 12.2118 13.0824 12.0383 13.0824Z" fill="black"/>
<path fill-rule="evenodd" clip-rule="evenodd" d="M17.3314 8.77828L17.3315 8.75972C17.3065 8.61111 17.2566 8.47089 17.1929 8.33612C17.1652 8.26228 17.1375 8.19674 17.0914 8.14135C17.036 8.03981 16.9529 7.94751 16.8606 7.86443C15.9006 6.96905 14.0268 7.54135 11.8298 9.40597C11.5345 9.64597 11.4975 10.089 11.7468 10.3752C11.7745 10.4029 11.7929 10.4306 11.8206 10.449C12.0791 10.6706 12.4575 10.689 12.7252 10.4583C14.5252 8.9352 15.7345 8.70443 15.9098 8.87058L15.9745 9.08289C15.9837 9.11058 15.9837 9.12905 15.9837 9.14751C15.9745 9.82135 15.3006 11.5106 13.436 13.5044C12.4391 14.5752 11.3591 15.4337 10.3991 15.9321C9.98368 16.1537 9.66984 16.2552 9.4483 16.3014C9.24522 16.3383 9.12526 16.329 9.05141 16.3198C9.01449 16.3106 8.99603 16.3014 8.98679 16.2921C8.8391 16.1537 8.91295 15.1567 9.98368 13.5321C10.1775 13.2367 10.1221 12.849 9.86368 12.6367C9.84522 12.609 9.81753 12.5906 9.78984 12.5721C9.46676 12.3598 9.04218 12.4429 8.82987 12.766C7.46372 14.8429 7.17756 16.4952 8.04526 17.3075C8.14679 17.3998 8.27603 17.4921 8.43295 17.5567C8.45141 17.5752 8.4791 17.5844 8.50679 17.5937C8.69141 17.6675 8.91295 17.7137 9.18064 17.7137C9.53137 17.7137 9.95599 17.6306 10.4821 17.4183H10.4914C10.6668 17.3444 10.8514 17.2614 11.0452 17.1598C11.1652 17.0952 11.2945 17.0306 11.4237 16.9475C12.4114 16.3752 13.4729 15.489 14.4514 14.446C15.356 13.4767 16.1775 12.369 16.7037 11.3167C16.8791 11.0029 17.0083 10.689 17.1191 10.3844C17.3221 9.80289 17.4052 9.24905 17.3314 8.77828Z" fill="black"/>
<path d="M13.7254 10.2981C13.503 10.2981 13.2833 10.1911 13.1504 9.99168C10.9617 6.73784 12.8937 4.01938 12.9768 3.90492C13.2021 3.59476 13.6341 3.5283 13.9442 3.75353C14.2516 3.97876 14.3208 4.40984 14.0965 4.71907C14.0301 4.81322 12.6694 6.79599 14.2987 9.21999C14.5128 9.53661 14.4288 9.96676 14.1113 10.1809C13.9922 10.2594 13.8584 10.2981 13.7254 10.2981Z" fill="black"/>
<path d="M20.4698 18.6473L17.3313 8.7796C17.4052 9.25037 17.3221 9.80422 17.119 10.3857C17.0083 10.6903 16.879 11.0042 16.7037 11.318C16.1775 12.3703 15.356 13.478 14.4513 14.4473C13.4729 15.4903 12.4113 16.3765 11.4237 16.9488C11.3215 17.0145 11.2193 17.0686 11.1217 17.1204C11.0959 17.1341 11.0703 17.1476 11.0452 17.1611C10.8513 17.2627 10.6667 17.3457 10.4913 17.4196H10.4821C9.95596 17.6319 9.53135 17.715 9.18056 17.715C8.91287 17.715 8.69133 17.6688 8.50671 17.595C8.55287 17.6227 8.59902 17.6411 8.64518 17.6503L18.8637 20.3365C18.9744 20.3734 19.0852 20.3827 19.196 20.3827C19.556 20.3827 19.9067 20.235 20.1652 19.9673C20.4975 19.6165 20.6175 19.1088 20.4698 18.6473Z" fill="black"/>
<path d="M3.2272 6.27518H3.24843C3.63058 6.27518 3.94074 6.58533 3.94074 6.96748C3.94074 7.34964 3.63058 7.65979 3.24843 7.65979C2.86627 7.65979 2.54504 7.34964 2.54504 6.96748C2.54504 6.58533 2.84504 6.27518 3.2272 6.27518Z" fill="black"/>
</svg>
