<svg width="24" height="24" viewBox="0 0 24 24" fill="none" xmlns="http://www.w3.org/2000/svg">
<path fill-rule="evenodd" clip-rule="evenodd" d="M11.9993 4.38462C8.54492 4.38462 5.7446 7.18482 5.7446 10.6402C5.7446 12.8588 7.06938 15.1148 8.62647 16.8679C9.39474 17.733 10.1931 18.4452 10.8564 18.9356C11.1888 19.1814 11.4769 19.3638 11.7019 19.4814C11.8751 19.5717 11.9691 19.6012 11.9993 19.6108C12.0295 19.6012 12.1236 19.5717 12.2967 19.4814C12.5217 19.3638 12.8098 19.1814 13.1423 18.9356C13.8055 18.4452 14.6039 17.733 15.3722 16.8679C16.9292 15.1148 18.254 12.8588 18.254 10.6402C18.254 7.18482 15.4537 4.38462 11.9993 4.38462ZM4.35999 10.6402C4.35999 6.42023 7.78011 3 11.9993 3C16.2185 3 19.6386 6.42023 19.6386 10.6402C19.6386 13.365 18.0459 15.9426 16.4074 17.7874C15.5779 18.7214 14.709 19.4992 13.9655 20.049C13.5945 20.3233 13.2443 20.5486 12.9374 20.7088C12.6641 20.8515 12.3206 21 11.9993 21C11.6781 21 11.3346 20.8515 11.0612 20.7088C10.7543 20.5486 10.4042 20.3233 10.0332 20.049C9.28966 19.4992 8.42073 18.7214 7.59123 17.7874C5.95278 15.9426 4.35999 13.365 4.35999 10.6402ZM8.99096 10.5817C8.99096 8.92019 10.3375 7.57397 11.9995 7.57397C13.6608 7.57397 15.0072 8.92037 15.0072 10.5817C15.0072 12.2426 13.6612 13.5903 11.9995 13.5903C10.3372 13.5903 8.99096 12.2428 8.99096 10.5817ZM11.9995 8.95858C11.1019 8.95858 10.3756 9.68524 10.3756 10.5817C10.3756 11.4784 11.1022 12.2057 11.9995 12.2057C12.8957 12.2057 13.6226 11.4786 13.6226 10.5817C13.6226 9.68507 12.8961 8.95858 11.9995 8.95858Z" fill="black"/>
</svg>
