<svg width="24" height="24" viewBox="0 0 24 24" fill="none" xmlns="http://www.w3.org/2000/svg">
<path d="M12.0765 5.53857C12.4587 5.53857 12.7688 5.84856 12.7688 6.23088V11.077H17.6149C17.9972 11.077 18.3072 11.387 18.3072 11.7693C18.3072 11.9785 18.2144 12.166 18.0679 12.2928C17.9467 12.398 17.788 12.4617 17.6149 12.4617H12.7688V17.3078C12.7688 17.6901 12.4587 18.0001 12.0765 18.0001C11.6942 18.0001 11.3842 17.6901 11.3842 17.3078V12.4617H6.53801C6.1558 12.4617 5.8457 12.1517 5.8457 11.7693C5.8457 11.387 6.1558 11.077 6.53801 11.077H11.3842V6.23088C11.3842 5.84856 11.6942 5.53857 12.0765 5.53857Z" fill="black"/>
</svg>
