<svg width="24" height="24" viewBox="0 0 24 24" fill="none" xmlns="http://www.w3.org/2000/svg">
<path fill-rule="evenodd" clip-rule="evenodd" d="M12 4.38462C7.79381 4.38462 4.38462 7.79381 4.38462 12C4.38462 16.2054 7.79386 19.6154 12 19.6154C16.2062 19.6154 19.6154 16.2054 19.6154 12C19.6154 7.79381 16.2062 4.38462 12 4.38462ZM3 12C3 7.02911 7.02911 3 12 3C16.9709 3 21 7.02911 21 12C21 16.9699 16.971 21 12 21C7.02906 21 3 16.9699 3 12Z" fill="black"/>
<path fill-rule="evenodd" clip-rule="evenodd" d="M11.9513 15.1812C12.3337 15.1812 12.6436 15.4911 12.6436 15.8735V15.8995C12.6436 16.2818 12.3337 16.5918 11.9513 16.5918C11.569 16.5918 11.259 16.2818 11.259 15.8995V15.8735C11.259 15.4911 11.569 15.1812 11.9513 15.1812Z" fill="black"/>
<path fill-rule="evenodd" clip-rule="evenodd" d="M9.27942 10.3322C9.27942 8.72667 10.5711 7.43506 12.1767 7.43506C13.7728 7.43506 15.073 8.72538 15.073 10.3322C15.073 11.4642 14.4249 12.2646 13.5823 12.7305C13.5299 12.7604 13.4799 12.7885 13.4319 12.8155C13.1878 12.9529 13.0006 13.0582 12.8475 13.1959C12.6971 13.3312 12.6405 13.4459 12.6425 13.6058C12.6476 13.9882 12.3417 14.3022 11.9594 14.3072C11.577 14.3122 11.2631 14.0064 11.2581 13.624C11.2494 12.9613 11.5614 12.4904 11.9214 12.1666C12.2005 11.9154 12.5472 11.7225 12.788 11.5885C12.8289 11.5657 12.8667 11.5447 12.9006 11.5253L12.9095 11.5203C13.4209 11.2385 13.6884 10.849 13.6884 10.3322C13.6884 9.49265 13.0107 8.81967 12.1767 8.81967C11.3357 8.81967 10.664 9.49137 10.664 10.3322C10.664 10.7146 10.354 11.0245 9.9717 11.0245C9.58938 11.0245 9.27942 10.7146 9.27942 10.3322Z" fill="black"/>
</svg>
