<svg width="24" height="24" viewBox="0 0 24 24" fill="none" xmlns="http://www.w3.org/2000/svg">
<path opacity="0.2" fill-rule="evenodd" clip-rule="evenodd" d="M12 2.5C6.762 2.5 2.5 6.762 2.5 12C2.5 17.238 6.762 21.5 12 21.5C17.239 21.5 21.5 17.238 21.5 12C21.5 6.762 17.239 2.5 12 2.5Z" fill="black"/>
<path fill-rule="evenodd" clip-rule="evenodd" d="M14.518 12.5288L11.127 15.9058C10.981 16.0518 10.789 16.1248 10.598 16.1248C10.406 16.1248 10.213 16.0508 10.067 15.9038C9.77403 15.6108 9.77503 15.1348 10.069 14.8428L12.926 11.9978L10.069 9.15185C9.77503 8.85985 9.77403 8.38485 10.067 8.09185C10.359 7.79885 10.834 7.79685 11.127 8.08985L14.518 11.4668C14.659 11.6068 14.739 11.7988 14.739 11.9978C14.739 12.1968 14.659 12.3878 14.518 12.5288Z" fill="black"/>
</svg>
