<svg width="24" height="24" viewBox="0 0 24 24" fill="none" xmlns="http://www.w3.org/2000/svg">
<path fill-rule="evenodd" clip-rule="evenodd" d="M7.28516 20.4319C7.28516 20.0342 7.60751 19.7119 8.00516 19.7119H15.5124C15.91 19.7119 16.2324 20.0342 16.2324 20.4319C16.2324 20.8295 15.91 21.1519 15.5124 21.1519H8.00516C7.60751 21.1519 7.28516 20.8295 7.28516 20.4319Z" fill="black"/>
<path fill-rule="evenodd" clip-rule="evenodd" d="M16.71 6.11066C16.9846 6.11002 17.2357 6.26562 17.3573 6.51184L20.7086 13.298C20.8272 13.5382 20.8027 13.8243 20.6451 14.0408C18.4432 17.0634 14.3127 16.9643 12.7595 13.9464C12.6556 13.7444 12.653 13.5052 12.7526 13.3011L16.0646 6.51486C16.1851 6.26808 16.4354 6.11129 16.71 6.11066ZM16.7155 8.46442L14.2164 13.5851C15.2552 15.1175 17.6105 15.3639 19.2153 13.5263L16.7155 8.46442Z" fill="black"/>
<path fill-rule="evenodd" clip-rule="evenodd" d="M6.76757 7.77936C7.04217 7.7787 7.29324 7.93429 7.41485 8.18051L10.7662 14.9658C10.8848 15.2059 10.8604 15.492 10.7028 15.7085C8.50197 18.7311 4.37021 18.6321 2.818 15.614C2.71415 15.412 2.71164 15.173 2.81121 14.9689L6.12222 8.18361C6.24265 7.93682 6.49297 7.78001 6.76757 7.77936ZM6.77321 10.1332L4.2749 15.2529C5.313 16.7852 7.66886 17.0317 9.27298 15.1942L6.77321 10.1332Z" fill="black"/>
<path fill-rule="evenodd" clip-rule="evenodd" d="M3.19336 14.3681C3.19336 13.9705 3.51572 13.6481 3.91336 13.6481H9.66379C10.0614 13.6481 10.3838 13.9705 10.3838 14.3681C10.3838 14.7658 10.0614 15.0881 9.66379 15.0881H3.91336C3.51572 15.0881 3.19336 14.7658 3.19336 14.3681Z" fill="black"/>
<path fill-rule="evenodd" clip-rule="evenodd" d="M13.1367 12.6994C13.1367 12.3017 13.4591 11.9794 13.8567 11.9794H19.6071C20.0047 11.9794 20.3271 12.3017 20.3271 12.6994C20.3271 13.097 20.0047 13.4194 19.6071 13.4194H13.8567C13.4591 13.4194 13.1367 13.097 13.1367 12.6994Z" fill="black"/>
<path fill-rule="evenodd" clip-rule="evenodd" d="M11.9068 2.43188C12.3044 2.43188 12.6268 2.75424 12.6268 3.15188V6.78701L16.5954 6.12149C16.9876 6.05572 17.3588 6.32033 17.4246 6.7125C17.4904 7.10467 17.2258 7.4759 16.8335 7.54166L6.88411 9.21015C6.49194 9.27591 6.12072 9.01131 6.05495 8.61914C5.98919 8.22697 6.25378 7.85574 6.64595 7.78998L11.1868 7.02849V3.15188C11.1868 2.75424 11.5092 2.43188 11.9068 2.43188Z" fill="black"/>
</svg>
