<svg width="24" height="24" viewBox="0 0 24 24" fill="none" xmlns="http://www.w3.org/2000/svg">
<path fill-rule="evenodd" clip-rule="evenodd" d="M10.9683 4.38462C7.05923 4.38462 3.8906 7.55324 3.8906 11.4623C3.8906 15.3715 7.05934 18.5409 10.9683 18.5409C12.8132 18.5409 14.4932 17.835 15.753 16.6783C15.7572 16.674 15.7614 16.6697 15.7657 16.6653C15.7827 16.6483 15.8003 16.6325 15.8185 16.6176C17.1898 15.3266 18.046 13.4944 18.046 11.4623C18.046 7.55324 14.8774 4.38462 10.9683 4.38462ZM17.2335 17.1515C18.5987 15.6486 19.4307 13.6526 19.4307 11.4623C19.4307 6.78855 15.6421 3 10.9683 3C6.29453 3 2.50598 6.78855 2.50598 11.4623C2.50598 16.136 6.29443 19.9255 10.9683 19.9255C12.9531 19.9255 14.7783 19.2421 16.2215 18.0978L18.9285 20.7978C19.1992 21.0678 19.6375 21.0673 19.9076 20.7966C20.1776 20.5259 20.1771 20.0875 19.9063 19.8175L17.2335 17.1515Z" fill="black"/>
</svg>
