<svg width="24" height="24" viewBox="0 0 24 24" fill="none" xmlns="http://www.w3.org/2000/svg">
<path fill-rule="evenodd" clip-rule="evenodd" d="M15.2488 12.0006C15.2488 13.7945 13.7948 15.2477 12.0023 15.2477C10.2089 15.2477 8.75488 13.7945 8.75488 12.0006C8.75488 10.2086 10.2089 8.75366 12.0023 8.75366C13.7948 8.75366 15.2488 10.2086 15.2488 12.0006ZM13.2368 13.3943C13.6217 13.0535 13.8642 12.556 13.8642 12.0006C13.8642 10.973 13.0309 10.1383 12.0023 10.1383C10.9733 10.1383 10.1395 10.973 10.1395 12.0006C10.1395 13.0301 10.9733 13.863 12.0023 13.863C12.476 13.863 12.9083 13.6864 13.2368 13.3943Z" fill="black"/>
<path fill-rule="evenodd" clip-rule="evenodd" d="M18.5987 6.30363C19.6115 6.88777 20.2344 7.9677 20.2344 9.13417V14.8655C20.2344 16.0338 19.6115 17.1119 18.5997 17.6979L13.6372 20.5626C12.6258 21.1468 11.3795 21.1468 10.3678 20.5626L5.40347 17.6979C4.3934 17.1119 3.77051 16.0338 3.77051 14.8655V9.13417C3.77051 7.9677 4.3934 6.88777 5.40437 6.30363L10.3678 3.43886C10.8959 3.13417 11.4877 2.98813 12.0768 3.00075C12.6164 3.01337 13.1536 3.1594 13.6372 3.43886L18.5987 6.30363ZM18.8498 9.13417C18.8498 8.46169 18.4906 7.83969 17.9074 7.50435L12.9449 4.63777C12.3617 4.30063 11.6423 4.30063 11.0591 4.63777L6.09668 7.50435C5.51435 7.83969 5.15512 8.46169 5.15512 9.13417V14.8655C5.15512 15.538 5.51435 16.1618 6.09668 16.499L11.0601 19.3638C11.6433 19.7009 12.3617 19.7009 12.9449 19.3638L17.9074 16.4971C18.4906 16.1618 18.8498 15.538 18.8498 14.8655V9.13417Z" fill="black"/>
</svg>
