<svg width="24" height="24" viewBox="0 0 24 24" fill="none" xmlns="http://www.w3.org/2000/svg">
<path fill-rule="evenodd" clip-rule="evenodd" d="M16.9833 4.38462C15.9889 4.38462 15.1834 5.19012 15.1834 6.18459C15.1834 7.17906 15.9889 7.98456 16.9833 7.98456C17.9778 7.98456 18.7833 7.17906 18.7833 6.18459C18.7833 5.19012 17.9778 4.38462 16.9833 4.38462ZM13.7988 6.18459C13.7988 4.42542 15.2242 3 16.9833 3C18.7425 3 20.1679 4.42542 20.1679 6.18459C20.1679 7.94376 18.7425 9.36917 16.9833 9.36917C15.2242 9.36917 13.7988 7.94376 13.7988 6.18459ZM7.01454 10.1996C6.02008 10.1996 5.21457 11.0051 5.21457 11.9995C5.21457 12.9941 6.02008 13.7995 7.01454 13.7995C8.00901 13.7995 8.81452 12.9941 8.81452 11.9995C8.81452 11.0051 8.00901 10.1996 7.01454 10.1996ZM3.82996 11.9995C3.82996 10.2404 5.25538 8.81497 7.01454 8.81497C8.77372 8.81497 10.1991 10.2404 10.1991 11.9995C10.1991 13.7587 8.77372 15.1842 7.01454 15.1842C5.25538 15.1842 3.82996 13.7587 3.82996 11.9995ZM16.9833 16.0155C15.9889 16.0155 15.1834 16.821 15.1834 17.8154C15.1834 18.8092 15.989 19.6154 16.9833 19.6154C17.9776 19.6154 18.7833 18.8092 18.7833 17.8154C18.7833 16.821 17.9778 16.0155 16.9833 16.0155ZM13.7988 17.8154C13.7988 16.0563 15.2242 14.6309 16.9833 14.6309C18.7425 14.6309 20.1679 16.0563 20.1679 17.8154C20.1679 19.5735 18.7427 21 16.9833 21C15.224 21 13.7988 19.5735 13.7988 17.8154Z" fill="black"/>
<path fill-rule="evenodd" clip-rule="evenodd" d="M15.4282 7.08988C15.6208 7.42013 15.5093 7.84404 15.1791 8.03673L9.51283 11.3427C9.18261 11.5354 8.75869 11.4239 8.56601 11.0937C8.37332 10.7634 8.48484 10.3394 8.81509 10.1468L14.4813 6.84079C14.8116 6.6481 15.2355 6.75962 15.4282 7.08988ZM8.56671 12.9051C8.75923 12.5748 9.18309 12.4631 9.51347 12.6556L15.1877 15.9624C15.5181 16.155 15.6299 16.5789 15.4373 16.9092C15.2448 17.2395 14.8209 17.3513 14.4906 17.1587L8.81626 13.8519C8.48592 13.6594 8.37419 13.2355 8.56671 12.9051Z" fill="black"/>
</svg>
