<svg width="24" height="24" viewBox="0 0 24 24" fill="none" xmlns="http://www.w3.org/2000/svg">
<path d="M12.6592 2.1037C12.2667 1.96543 11.8339 1.96543 11.4313 2.1037L4.79857 4.32867C4.05377 4.57382 3.55053 5.26122 3.55053 6.02608L3.5001 12.6637C3.49014 14.674 4.22487 16.6253 5.57356 18.1561C6.18751 18.8621 6.98264 19.4603 7.98912 19.9996L11.5621 21.9117C11.6728 21.9706 11.7936 22 11.9144 22C12.0352 22 12.166 21.9706 12.2767 21.9117L15.8799 20.0486C16.8965 19.5191 17.6916 18.9307 18.3156 18.2345C19.6845 16.7244 20.4494 14.773 20.4594 12.7628L20.4999 6.12316C20.5098 5.3583 20.0065 4.67286 19.2718 4.41693L12.6592 2.1037ZM13.3637 9.35913C13.6556 9.07476 14.1287 9.07476 14.4306 9.35913C14.7225 9.65429 14.7225 10.1152 14.4306 10.3995L13.0719 11.7224L14.4306 13.0472C14.7225 13.3315 14.7225 13.8022 14.4306 14.0866C14.2796 14.2337 14.0884 14.3013 13.8972 14.3013C13.6959 14.3013 13.5046 14.2337 13.3637 14.0866L12.005 12.7628L10.6462 14.0866C10.4953 14.2337 10.304 14.3013 10.1128 14.3013C9.92157 14.3013 9.72027 14.2337 9.57936 14.0866C9.28748 13.8022 9.28748 13.3315 9.57936 13.0472L10.9381 11.7224L9.57936 10.3995C9.28748 10.1152 9.28748 9.65429 9.57936 9.35913C9.87124 9.07476 10.3544 9.07476 10.6462 9.35913L12.005 10.6839L13.3637 9.35913Z" fill="black"/>
</svg>
