<svg width="24" height="24" viewBox="0 0 24 24" fill="none" xmlns="http://www.w3.org/2000/svg">
<path fill-rule="evenodd" clip-rule="evenodd" d="M7.79098 10.3844C8.11608 10.3844 8.40416 10.5938 8.50442 10.9031C9.16713 12.9471 10.7693 14.5493 12.8133 15.212C13.1226 15.3123 13.332 15.6004 13.332 15.9255C13.332 16.2506 13.1225 16.5386 12.8133 16.6389C10.7694 17.3015 9.16718 18.9036 8.50445 20.9486C8.40421 21.2579 8.11611 21.4674 7.79098 21.4674C7.46585 21.4674 7.17775 21.2579 7.07751 20.9486C6.41479 18.9036 4.81264 17.3015 2.76871 16.6389C2.45946 16.5386 2.25001 16.2506 2.25 15.9255C2.24999 15.6004 2.45943 15.3123 2.76868 15.212C4.81268 14.5493 6.41484 12.9471 7.07754 10.9031C7.17781 10.5938 7.46589 10.3844 7.79098 10.3844Z" fill="black"/>
<path fill-rule="evenodd" clip-rule="evenodd" d="M17.8244 7.03992C18.1495 7.03992 18.4376 7.24936 18.5378 7.5586C18.9521 8.83631 19.9536 9.83784 21.2313 10.2521C21.5406 10.3524 21.75 10.6405 21.75 10.9656C21.75 11.2907 21.5406 11.5787 21.2313 11.679C19.9537 12.0932 18.9521 13.0947 18.5379 14.373C18.4376 14.6823 18.1495 14.8918 17.8244 14.8918C17.4993 14.8918 17.2112 14.6823 17.1109 14.373C16.6966 13.0946 15.6952 12.0932 14.4175 11.679C14.1083 11.5787 13.8988 11.2907 13.8988 10.9656C13.8988 10.6405 14.1082 10.3524 14.4175 10.2521C15.6952 9.83784 16.6967 8.83632 17.111 7.55861C17.2112 7.24936 17.4993 7.03992 17.8244 7.03992Z" fill="black"/>
<path fill-rule="evenodd" clip-rule="evenodd" d="M11.0871 2.53259C11.4121 2.53259 11.7002 2.74203 11.8005 3.05128C12.0287 3.75523 12.5805 4.30702 13.2845 4.53526C13.5937 4.63553 13.8032 4.92362 13.8032 5.24871C13.8031 5.57381 13.5937 5.86189 13.2844 5.96214C12.5806 6.19034 12.0288 6.74206 11.8005 7.44639C11.7003 7.75569 11.4122 7.96517 11.0871 7.96517C10.7619 7.96517 10.4738 7.75568 10.3736 7.44639C10.1453 6.74205 9.59357 6.19033 8.88968 5.96214C8.58043 5.86189 8.37098 5.57381 8.37097 5.24871C8.37097 4.92362 8.5804 4.63553 8.88965 4.53526C9.59361 4.30702 10.1454 3.75524 10.3736 3.05128C10.4739 2.74204 10.762 2.53259 11.0871 2.53259Z" fill="black"/>
</svg>
